<svg width="21" height="20" viewBox="0 0 21 20" fill="none" xmlns="http://www.w3.org/2000/svg">
<path fill-rule="evenodd" clip-rule="evenodd" d="M10.9245 0.24657C5.40311 0.24657 0.925377 4.72368 0.925377 10.2469C0.925377 14.6651 3.79041 18.4129 7.76414 19.7352C8.26446 19.8273 8.44679 19.5185 8.44679 19.2533C8.44679 19.0157 8.43819 18.3871 8.43328 17.5528C5.65174 18.1569 5.06486 16.2121 5.06486 16.2121C4.60996 15.0567 3.95433 14.7492 3.95433 14.7492C3.04638 14.1291 4.02308 14.1414 4.02308 14.1414C5.0268 14.212 5.55474 15.1721 5.55474 15.1721C6.44673 16.7001 7.89551 16.2587 8.46521 16.0027C8.55606 15.3569 8.81451 14.9161 9.09997 14.6663C6.87952 14.414 4.54489 13.5558 4.54489 9.72384C4.54489 8.63234 4.93471 7.73912 5.57439 7.04051C5.47126 6.78759 5.12809 5.77037 5.67261 4.39402C5.67261 4.39402 6.5118 4.12514 8.42223 5.41923C9.21968 5.197 10.0754 5.08649 10.9257 5.08219C11.7753 5.08649 12.6305 5.197 13.4291 5.41923C15.3383 4.12514 16.1763 4.39402 16.1763 4.39402C16.7221 5.77037 16.3789 6.78759 16.2764 7.04051C16.9173 7.73912 17.304 8.63234 17.304 9.72384C17.304 13.5656 14.9657 14.4109 12.7385 14.6583C13.097 14.9671 13.4169 15.5773 13.4169 16.5098C13.4169 17.8469 13.4046 18.9255 13.4046 19.2533C13.4046 19.5209 13.5851 19.8322 14.0921 19.7346C18.0628 18.4092 20.9254 14.6638 20.9254 10.2469C20.9254 4.72368 16.4476 0.24657 10.9245 0.24657Z" fill="black"/>
</svg>
