<svg width="21" height="21" viewBox="0 0 21 21" fill="none" xmlns="http://www.w3.org/2000/svg">
<path d="M10.3932 2.04373C13.0632 2.04373 13.3799 2.05373 14.4349 2.10207C17.1449 2.2254 18.4107 3.51123 18.5341 6.20123C18.5824 7.2554 18.5916 7.57207 18.5916 10.2421C18.5916 12.9129 18.5816 13.2287 18.5341 14.2829C18.4099 16.9704 17.1474 18.2587 14.4349 18.3821C13.3799 18.4304 13.0649 18.4404 10.3932 18.4404C7.72322 18.4404 7.40655 18.4304 6.35239 18.3821C3.63572 18.2579 2.37655 16.9662 2.25322 14.2821C2.20489 13.2279 2.19489 12.9121 2.19489 10.2412C2.19489 7.57123 2.20572 7.2554 2.25322 6.2004C2.37739 3.51123 3.63989 2.22457 6.35239 2.10123C7.40739 2.05373 7.72322 2.04373 10.3932 2.04373V2.04373ZM10.3932 0.241234C7.67739 0.241234 7.33739 0.2529 6.27072 0.301234C2.63905 0.4679 0.620719 2.4829 0.454052 6.1179C0.404886 7.1854 0.393219 7.5254 0.393219 10.2412C0.393219 12.9571 0.404886 13.2979 0.453219 14.3646C0.619886 17.9962 2.63489 20.0146 6.26989 20.1812C7.33739 20.2296 7.67739 20.2412 10.3932 20.2412C13.1091 20.2412 13.4499 20.2296 14.5166 20.1812C18.1449 20.0146 20.1682 17.9996 20.3324 14.3646C20.3816 13.2979 20.3932 12.9571 20.3932 10.2412C20.3932 7.5254 20.3816 7.1854 20.3332 6.11873C20.1699 2.4904 18.1524 0.468734 14.5174 0.302067C13.4499 0.2529 13.1091 0.241234 10.3932 0.241234V0.241234ZM10.3932 5.10623C7.55739 5.10623 5.25822 7.4054 5.25822 10.2412C5.25822 13.0771 7.55739 15.3771 10.3932 15.3771C13.2291 15.3771 15.5282 13.0779 15.5282 10.2412C15.5282 7.4054 13.2291 5.10623 10.3932 5.10623ZM10.3932 13.5746C8.55239 13.5746 7.05989 12.0829 7.05989 10.2412C7.05989 8.4004 8.55239 6.9079 10.3932 6.9079C12.2341 6.9079 13.7266 8.4004 13.7266 10.2412C13.7266 12.0829 12.2341 13.5746 10.3932 13.5746ZM15.7316 3.70373C15.0682 3.70373 14.5307 4.24123 14.5307 4.90373C14.5307 5.56623 15.0682 6.10373 15.7316 6.10373C16.3941 6.10373 16.9307 5.56623 16.9307 4.90373C16.9307 4.24123 16.3941 3.70373 15.7316 3.70373Z" fill="black"/>
</svg>
