<svg width="239" height="64" viewBox="0 0 239 64" fill="none" xmlns="http://www.w3.org/2000/svg">
<g clip-path="url(#clip0)">
<rect x="0.42627" width="238" height="64" fill="white"/>
<g clip-path="url(#clip1)">
<path d="M98.529 53.4365C110.241 53.4365 119.736 43.9418 119.736 32.2295C119.736 20.5172 110.241 11.0225 98.529 11.0225C86.8167 11.0225 77.322 20.5172 77.322 32.2295C77.322 43.9418 86.8167 53.4365 98.529 53.4365Z" fill="white"/>
<path d="M98.3835 8C105.125 8 110.811 10.3138 115.44 14.9427C120.096 19.6003 122.426 25.286 122.426 32C122.426 38.7433 120.14 44.357 115.568 48.842C110.711 53.6143 104.983 56 98.3835 56C91.8968 56 86.2688 53.642 81.498 48.9275C76.7843 44.213 74.4263 38.5715 74.4263 32C74.4263 25.4293 76.7843 19.7435 81.498 14.9435C86.127 10.3137 91.7543 8 98.3835 8ZM98.469 12.329C93.012 12.329 88.398 14.2437 84.6263 18.0717C80.7113 22.0723 78.7545 26.7155 78.7545 32.0007C78.7545 37.3152 80.697 41.9157 84.582 45.7992C88.4678 49.6857 93.096 51.6275 98.4675 51.6275C103.81 51.6275 108.468 49.6722 112.439 45.7565C116.211 42.128 118.097 37.5425 118.097 31.9993C118.097 26.5423 116.182 21.9005 112.355 18.071C108.527 14.243 103.898 12.329 98.469 12.329ZM104.898 26.0427V35.8565H102.156V47.513H94.698V35.8573H91.956V26.0427C91.956 25.6137 92.106 25.25 92.4053 24.95C92.706 24.6508 93.0705 24.5 93.498 24.5H103.356C103.756 24.5 104.114 24.65 104.427 24.95C104.74 25.25 104.898 25.6145 104.898 26.0427ZM95.0828 19.8718C95.0828 17.6158 96.1965 16.4863 98.4263 16.4863C100.656 16.4863 101.769 17.6143 101.769 19.8718C101.769 22.1 100.655 23.2145 98.4263 23.2145C96.198 23.2145 95.0828 22.1 95.0828 19.8718Z" fill="black"/>
</g>
<g clip-path="url(#clip2)">
<path d="M32.7113 60.837C48.637 60.837 61.5473 47.9267 61.5473 32.001C61.5473 16.0753 48.637 3.16501 32.7113 3.16501C16.7856 3.16501 3.87527 16.0753 3.87527 32.001C3.87527 47.9267 16.7856 60.837 32.7113 60.837Z" fill="white"/>
<path d="M32.3673 0C41.3183 0 48.9393 3.125 55.2243 9.372C58.2323 12.381 60.5193 15.82 62.0813 19.686C63.6423 23.553 64.4253 27.657 64.4253 32C64.4253 36.381 63.6523 40.486 62.1113 44.313C60.5683 48.141 58.2913 51.523 55.2833 54.456C52.1603 57.541 48.6173 59.904 44.6543 61.542C40.6933 63.18 36.5973 63.999 32.3693 63.999C28.1413 63.999 24.0933 63.191 20.2263 61.57C16.3603 59.952 12.8933 57.609 9.82627 54.543C6.75927 51.477 4.42627 48.019 2.82627 44.171C1.22627 40.323 0.42627 36.267 0.42627 32C0.42627 27.771 1.23527 23.705 2.85427 19.8C4.47327 15.895 6.82627 12.4 9.91127 9.314C16.0063 3.106 23.4913 0 32.3673 0ZM32.4833 5.772C25.1693 5.772 19.0163 8.325 14.0253 13.429C11.5103 15.982 9.57727 18.848 8.22527 22.029C6.87127 25.21 6.19627 28.534 6.19627 32.001C6.19627 35.43 6.87127 38.735 8.22527 41.914C9.57827 45.097 11.5103 47.935 14.0253 50.43C16.5393 52.926 19.3763 54.829 22.5403 56.145C25.7013 57.459 29.0163 58.116 32.4833 58.116C35.9113 58.116 39.2333 57.451 42.4563 56.117C45.6753 54.782 48.5773 52.86 51.1693 50.346C56.1593 45.47 58.6533 39.356 58.6533 32.002C58.6533 28.459 58.0053 25.107 56.7103 21.945C55.4173 18.783 53.5303 15.965 51.0563 13.487C45.9103 8.344 39.7213 5.772 32.4833 5.772ZM32.0823 26.687L27.7953 28.916C27.3373 27.965 26.7763 27.297 26.1103 26.916C25.4433 26.536 24.8243 26.345 24.2523 26.345C21.3963 26.345 19.9663 28.23 19.9663 32.002C19.9663 33.716 20.3283 35.086 21.0513 36.115C21.7753 37.144 22.8423 37.659 24.2523 37.659C26.1193 37.659 27.4333 36.744 28.1963 34.916L32.1383 36.916C31.3003 38.479 30.1383 39.707 28.6523 40.602C27.1683 41.498 25.5293 41.945 23.7383 41.945C20.8813 41.945 18.5753 41.07 16.8233 39.316C15.0713 37.564 14.1953 35.126 14.1953 32.003C14.1953 28.955 15.0813 26.537 16.8523 24.746C18.6233 22.956 20.8613 22.06 23.5673 22.06C27.5303 22.058 30.3673 23.601 32.0823 26.687ZM50.5393 26.687L46.3103 28.916C45.8533 27.965 45.2903 27.297 44.6243 26.916C43.9563 26.536 43.3173 26.345 42.7103 26.345C39.8533 26.345 38.4233 28.23 38.4233 32.002C38.4233 33.716 38.7863 35.086 39.5093 36.115C40.2323 37.144 41.2983 37.659 42.7103 37.659C44.5753 37.659 45.8903 36.744 46.6513 34.916L50.6513 36.916C49.7763 38.479 48.5943 39.707 47.1103 40.602C45.6243 41.498 44.0053 41.945 42.2533 41.945C39.3573 41.945 37.0443 41.07 35.3123 39.316C33.5763 37.564 32.7103 35.126 32.7103 32.003C32.7103 28.955 33.5953 26.537 35.3683 24.746C37.1383 22.956 39.3763 22.06 42.0813 22.06C46.0433 22.058 48.8643 23.601 50.5393 26.687Z" fill="black"/>
</g>
<g clip-path="url(#clip3)">
<path d="M214.009 53.927C226.065 53.927 235.838 44.1539 235.838 32.0983C235.838 20.0426 226.065 10.2695 214.009 10.2695C201.954 10.2695 192.181 20.0426 192.181 32.0983C192.181 44.1539 201.954 53.927 214.009 53.927Z" fill="white"/>
<path d="M214.384 8C221.097 8 226.782 10.3288 231.44 14.9863C236.096 19.6153 238.426 25.286 238.426 32C238.426 38.7155 236.14 44.3427 231.568 48.8855C226.74 53.6285 221.011 56 214.384 56C207.897 56 202.269 53.6427 197.498 48.9282C192.784 44.2145 190.426 38.573 190.426 32.0007C190.426 25.4585 192.784 19.787 197.498 14.987C202.155 10.3288 207.784 8 214.384 8ZM214.469 12.329C209.012 12.329 204.398 14.258 200.626 18.1153C196.711 22.0873 194.755 26.7155 194.755 32C194.755 37.3438 196.697 41.9428 200.582 45.8C204.468 49.6865 209.096 51.6283 214.468 51.6283C219.81 51.6283 224.468 49.6715 228.439 45.7572C232.211 42.1002 234.097 37.5148 234.097 32C234.097 26.5152 232.182 21.8863 228.355 18.1153C224.554 14.2565 219.925 12.329 214.469 12.329ZM203.755 28.6138C204.211 25.6708 205.396 23.3923 207.311 21.7783C209.225 20.1643 211.553 19.3572 214.297 19.3572C218.067 19.3572 221.068 20.5723 223.297 22.9993C225.525 25.4278 226.639 28.5425 226.639 32.342C226.639 36.0283 225.482 39.092 223.169 41.534C220.853 43.976 217.855 45.1985 214.168 45.1985C211.453 45.1985 209.11 44.3847 207.139 42.7557C205.168 41.1267 203.983 38.813 203.582 35.813H209.626C209.769 38.7275 211.526 40.1847 214.898 40.1847C216.583 40.1847 217.941 39.4558 218.969 37.9993C219.999 36.5428 220.513 34.5988 220.513 32.171C220.513 29.6278 220.042 27.6928 219.1 26.3638C218.156 25.0355 216.8 24.371 215.027 24.371C211.826 24.371 210.027 25.7847 209.627 28.613H211.384L206.628 33.3702L201.871 28.613L203.755 28.6138Z" fill="black"/>
</g>
<g clip-path="url(#clip4)">
<path d="M156.404 54.2803C168.611 54.2803 178.507 44.3843 178.507 32.177C178.507 19.9697 168.611 10.0738 156.404 10.0738C144.196 10.0738 134.301 19.9697 134.301 32.177C134.301 44.3843 144.196 54.2803 156.404 54.2803Z" fill="white"/>
<path d="M156.383 8C163.125 8 168.811 10.3138 173.44 14.942C178.096 19.571 180.426 25.2567 180.426 32C180.426 38.744 178.14 44.357 173.568 48.8435C168.711 53.615 162.982 56 156.383 56C149.868 56 144.24 53.6285 139.498 48.8862C134.784 44.171 132.426 38.5438 132.426 32C132.426 25.4285 134.784 19.7428 139.498 14.9427C144.126 10.3145 149.754 8 156.383 8ZM137.826 25.529C137.112 27.5 136.755 29.6577 136.755 32.0007C136.755 37.3152 138.697 41.9158 142.582 45.8008C146.496 49.6588 151.125 51.587 156.468 51.587C161.868 51.587 166.524 49.631 170.44 45.7152C171.84 44.3727 172.939 42.9725 173.739 41.5138L164.697 37.4855C164.381 39.0005 163.617 40.2358 162.404 41.192C161.187 42.149 159.753 42.7003 158.096 42.842V46.5282H155.31V42.842C152.653 42.815 150.224 41.858 148.025 39.9718L151.325 36.629C152.895 38.0855 154.682 38.8137 156.682 38.8137C157.51 38.8137 158.218 38.6292 158.805 38.2565C159.39 37.886 159.684 37.2725 159.684 36.4137C159.684 35.813 159.468 35.3278 159.04 34.9565L156.726 33.9702L153.898 32.684L150.084 31.0123L137.826 25.529ZM156.469 12.2855C151.012 12.2855 146.398 14.2138 142.626 18.071C141.683 19.0145 140.797 20.0855 139.969 21.2863L149.141 25.4C149.541 24.143 150.297 23.1358 151.413 22.379C152.526 21.6223 153.826 21.2008 155.313 21.1145V17.4283H158.099V21.1145C160.299 21.2293 162.299 21.9718 164.099 23.3428L160.97 26.5573C159.625 25.6145 158.256 25.1435 156.855 25.1435C156.112 25.1435 155.448 25.2868 154.863 25.5718C154.278 25.8575 153.984 26.3435 153.984 27.029C153.984 27.2292 154.056 27.4288 154.198 27.629L157.241 29.0015L159.341 29.9443L163.199 31.658L175.497 37.1435C175.898 35.4575 176.097 33.7437 176.097 32.0007C176.097 26.486 174.183 21.8435 170.355 18.071C166.555 14.2138 161.925 12.2855 156.469 12.2855Z" fill="black"/>
</g>
</g>
<defs>
<clipPath id="clip0">
<rect x="0.42627" width="238" height="64" fill="white"/>
</clipPath>
<clipPath id="clip1">
<rect x="74.4263" y="8" width="48" height="48" fill="white"/>
</clipPath>
<clipPath id="clip2">
<rect x="0.42627" width="64" height="64" fill="white"/>
</clipPath>
<clipPath id="clip3">
<rect x="190.426" y="8" width="48" height="48" fill="white"/>
</clipPath>
<clipPath id="clip4">
<rect x="132.426" y="8" width="48" height="48" fill="white"/>
</clipPath>
</defs>
</svg>
