<svg width="414" height="114" viewBox="0 0 414 114" fill="none" xmlns="http://www.w3.org/2000/svg">
<g clip-path="url(#clip0)">
<rect width="414" height="114" fill="white"/>
<path d="M123.232 75.712C121.552 75.712 119.44 74.104 116.896 70.888C114.352 67.72 111.808 63.904 109.264 59.44C106.768 54.928 104.728 50.8 103.144 47.056C102.04 50.752 100.744 55.312 99.2562 60.736C98.4402 63.808 97.2642 67.984 95.7282 73.264C94.4802 73.264 93.3762 72.904 92.4162 72.184C91.4562 71.512 90.9762 70.672 90.9762 69.664C90.9762 68.944 91.3122 67.624 91.9842 65.704C95.2002 55.72 98.1522 47.128 100.84 39.928C103.528 32.68 106.648 25.024 110.2 16.96C108.376 17.248 106.792 17.68 105.448 18.256C104.152 18.784 102.736 19.456 101.2 20.272C100.288 20.8 99.7122 21.064 99.4722 21.064C99.1362 21.064 98.6802 20.824 98.1042 20.344C97.5282 19.864 97.2402 19.456 97.2402 19.12C103.384 16.48 108.784 15.16 113.44 15.16C116.416 15.16 119.296 15.64 122.08 16.6C124.864 17.56 127.144 19.048 128.92 21.064C130.744 23.08 131.656 25.6 131.656 28.624C131.656 32.896 129.928 36.208 126.472 38.56C123.064 40.864 119.32 42.4 115.24 43.168C111.208 43.888 107.728 44.248 104.8 44.248C105.28 45.112 105.712 45.904 106.096 46.624C106.528 47.344 106.912 47.992 107.248 48.568C109.312 52.264 111.112 55.312 112.648 57.712C114.232 60.112 116.176 62.656 118.48 65.344C120.832 67.984 123.64 70.648 126.904 73.336C126.616 73.96 126.088 74.512 125.32 74.992C124.6 75.472 123.904 75.712 123.232 75.712ZM104.296 43.096C108.088 42.856 111.688 42.136 115.096 40.936C118.504 39.736 121.312 37.984 123.52 35.68C125.728 33.376 126.832 30.52 126.832 27.112C126.832 23.464 125.584 20.824 123.088 19.192C120.64 17.512 117.592 16.672 113.944 16.672C111.064 22.432 107.848 31.24 104.296 43.096ZM133.007 70.384C131.423 70.384 130.151 69.856 129.191 68.8C128.183 67.792 127.679 66.328 127.679 64.408C127.679 61.576 128.687 58.408 130.703 54.904C132.767 51.4 135.359 48.424 138.479 45.976C141.599 43.528 144.647 42.304 147.623 42.304C149.495 42.304 151.055 42.808 152.303 43.816C153.551 44.824 154.175 46.12 154.175 47.704C154.175 48.808 153.863 49.6 153.239 50.08C152.615 50.56 151.751 50.8 150.647 50.8C150.887 49.936 151.007 49.096 151.007 48.28C151.007 47.08 150.719 46.12 150.143 45.4C149.567 44.632 148.679 44.248 147.479 44.248C145.367 44.248 143.135 45.424 140.783 47.776C138.479 50.128 136.535 52.936 134.951 56.2C133.415 59.464 132.647 62.272 132.647 64.624C132.647 66.496 133.295 67.432 134.591 67.432C136.511 67.432 138.767 65.92 141.359 62.896C143.951 59.824 146.735 56.104 149.711 51.736C150.335 51.832 150.959 52.048 151.583 52.384C152.255 52.672 152.591 53.056 152.591 53.536C152.591 53.92 152.351 54.544 151.871 55.408C151.439 56.224 151.175 56.704 151.079 56.848C150.263 58.24 149.615 59.488 149.135 60.592C148.655 61.648 148.415 62.632 148.415 63.544C148.415 64.36 148.607 65.104 148.991 65.776C149.423 66.4 150.047 66.712 150.863 66.712C152.255 66.712 154.007 65.728 156.119 63.76C158.231 61.744 160.319 58.936 162.383 55.336L163.103 56.056C162.095 58.6 160.799 60.88 159.215 62.896C157.631 64.864 155.927 66.4 154.103 67.504C152.279 68.608 150.527 69.16 148.847 69.16C147.167 69.16 145.871 68.656 144.959 67.648C144.095 66.688 143.663 65.512 143.663 64.12C143.663 63.496 143.735 62.8 143.879 62.032C141.719 64.912 139.775 67.024 138.047 68.368C136.367 69.712 134.687 70.384 133.007 70.384ZM163.646 87.16C162.494 87.16 161.51 86.8 160.694 86.08C159.878 85.408 159.47 84.376 159.47 82.984C159.47 81.208 160.166 79.552 161.558 78.016C162.95 76.528 164.534 75.232 166.31 74.128C168.134 73.072 170.534 71.8 173.51 70.312C174.854 66.856 176.078 62.896 177.182 58.432C172.91 64.576 168.998 67.648 165.446 67.648C163.766 67.648 162.446 67.024 161.486 65.776C160.526 64.48 160.046 62.776 160.046 60.664C160.046 57.496 161.054 54.472 163.07 51.592C165.134 48.712 167.654 46.408 170.63 44.68C173.654 42.904 176.486 42.016 179.126 42.016C180.422 42.016 181.382 42.232 182.006 42.664C182.678 43.096 183.014 43.648 183.014 44.32C183.014 44.704 182.894 45.04 182.654 45.328C182.462 45.568 182.294 45.712 182.15 45.76C181.67 45.04 180.71 44.68 179.27 44.68C176.87 44.68 174.542 45.592 172.286 47.416C170.078 49.24 168.278 51.448 166.886 54.04C165.494 56.632 164.798 58.96 164.798 61.024C164.798 62.176 165.014 63.064 165.446 63.688C165.926 64.264 166.55 64.552 167.318 64.552C168.614 64.552 170.222 63.664 172.142 61.888C174.11 60.112 176.054 57.832 177.974 55.048L178.838 51.232C179.03 50.32 179.414 49.48 179.99 48.712C180.614 47.944 181.454 47.56 182.51 47.56C182.942 47.56 183.446 47.632 184.022 47.776C184.022 49.072 183.494 51.688 182.438 55.624C181.382 59.512 180.062 63.472 178.478 67.504C180.974 66.304 183.278 64.648 185.39 62.536C187.55 60.376 189.158 57.976 190.214 55.336L191.15 56.056C190.142 58.984 188.318 61.648 185.678 64.048C183.086 66.448 180.422 68.296 177.686 69.592C175.43 75.064 173.15 79.36 170.846 82.48C168.542 85.6 166.142 87.16 163.646 87.16ZM163.43 84.856C164.534 84.856 165.902 83.8 167.534 81.688C169.214 79.624 170.942 76.48 172.718 72.256C169.214 74.032 166.502 75.688 164.582 77.224C162.662 78.76 161.702 80.464 161.702 82.336C161.702 83.104 161.846 83.704 162.134 84.136C162.47 84.616 162.902 84.856 163.43 84.856ZM225.183 69.232C223.599 69.232 222.399 68.728 221.583 67.72C220.767 66.76 220.359 65.512 220.359 63.976C220.359 62.68 220.743 60.784 221.511 58.288C221.751 57.472 221.967 56.656 222.159 55.84C222.399 55.024 222.519 54.328 222.519 53.752C222.519 52.888 222.303 52.24 221.871 51.808C221.487 51.376 221.007 51.16 220.431 51.16C219.327 51.16 218.127 51.952 216.831 53.536C215.583 55.072 213.639 57.856 210.999 61.888C210.327 62.944 209.391 64.72 208.191 67.216L207.543 68.584C206.775 68.584 205.959 68.44 205.095 68.152C204.279 67.912 203.871 67.576 203.871 67.144C203.871 66.808 204.279 65.536 205.095 63.328C206.103 60.352 206.895 57.856 207.471 55.84C208.095 53.776 208.407 52.024 208.407 50.584C208.407 48.76 207.807 47.848 206.607 47.848C205.263 47.848 203.511 48.928 201.351 51.088C199.239 53.248 197.151 55.984 195.087 59.296C193.023 62.56 191.415 65.776 190.263 68.944C189.543 68.944 188.727 68.776 187.815 68.44C186.855 68.104 186.375 67.768 186.375 67.432C186.375 67.288 186.711 66.16 187.383 64.048C188.487 60.832 189.399 57.88 190.119 55.192C190.887 52.504 191.295 50.176 191.343 48.208C191.679 47.824 192.159 47.488 192.783 47.2C193.407 46.864 194.031 46.696 194.655 46.696C195.951 46.696 196.599 47.32 196.599 48.568C196.599 49.864 195.975 52.6 194.727 56.776C197.079 53.032 199.599 49.816 202.287 47.128C205.023 44.44 207.567 43.096 209.919 43.096C211.311 43.096 212.295 43.6 212.871 44.608C213.495 45.616 213.807 46.936 213.807 48.568C213.807 50.2 213.567 51.976 213.087 53.896C212.607 55.816 212.103 57.424 211.575 58.72C213.399 55.408 215.295 52.744 217.263 50.728C219.231 48.664 221.319 47.632 223.527 47.632C224.967 47.632 225.999 48.064 226.623 48.928C227.295 49.792 227.631 50.896 227.631 52.24C227.631 53.152 227.511 54.136 227.271 55.192C227.031 56.2 226.671 57.448 226.191 58.936C225.375 61.48 224.967 63.256 224.967 64.264C224.967 65.896 225.687 66.712 227.127 66.712C228.903 66.712 230.583 65.632 232.167 63.472C233.751 61.264 235.287 58.552 236.775 55.336L237.639 56.344C236.295 59.896 234.543 62.944 232.383 65.488C230.223 67.984 227.823 69.232 225.183 69.232ZM238.897 70.384C237.313 70.384 236.041 69.856 235.081 68.8C234.073 67.792 233.569 66.328 233.569 64.408C233.569 61.576 234.577 58.408 236.593 54.904C238.657 51.4 241.249 48.424 244.369 45.976C247.489 43.528 250.537 42.304 253.513 42.304C255.385 42.304 256.945 42.808 258.193 43.816C259.441 44.824 260.065 46.12 260.065 47.704C260.065 48.808 259.753 49.6 259.129 50.08C258.505 50.56 257.641 50.8 256.537 50.8C256.777 49.936 256.897 49.096 256.897 48.28C256.897 47.08 256.609 46.12 256.033 45.4C255.457 44.632 254.569 44.248 253.369 44.248C251.257 44.248 249.025 45.424 246.673 47.776C244.369 50.128 242.425 52.936 240.841 56.2C239.305 59.464 238.537 62.272 238.537 64.624C238.537 66.496 239.185 67.432 240.481 67.432C242.401 67.432 244.657 65.92 247.249 62.896C249.841 59.824 252.625 56.104 255.601 51.736C256.225 51.832 256.849 52.048 257.473 52.384C258.145 52.672 258.481 53.056 258.481 53.536C258.481 53.92 258.241 54.544 257.761 55.408C257.329 56.224 257.065 56.704 256.969 56.848C256.153 58.24 255.505 59.488 255.025 60.592C254.545 61.648 254.305 62.632 254.305 63.544C254.305 64.36 254.497 65.104 254.881 65.776C255.313 66.4 255.937 66.712 256.753 66.712C258.145 66.712 259.897 65.728 262.009 63.76C264.121 61.744 266.209 58.936 268.273 55.336L268.993 56.056C267.985 58.6 266.689 60.88 265.105 62.896C263.521 64.864 261.817 66.4 259.993 67.504C258.169 68.608 256.417 69.16 254.737 69.16C253.057 69.16 251.761 68.656 250.849 67.648C249.985 66.688 249.553 65.512 249.553 64.12C249.553 63.496 249.625 62.8 249.769 62.032C247.609 64.912 245.665 67.024 243.937 68.368C242.257 69.712 240.577 70.384 238.897 70.384ZM274.361 70.672C271.241 70.672 268.961 69.736 267.521 67.864C266.081 65.992 265.361 63.784 265.361 61.24C265.361 59.32 265.697 57.976 266.369 57.208C267.041 56.392 267.761 55.816 268.529 55.48C269.345 55.144 269.825 54.904 269.969 54.76C273.041 51.4 275.417 47.92 277.097 44.32V43.456C277.097 41.824 277.361 40.6 277.889 39.784C278.465 38.968 279.137 38.56 279.905 38.56C280.289 38.56 280.577 38.656 280.769 38.848C280.961 38.992 281.057 39.208 281.057 39.496C281.057 39.688 280.985 40.096 280.841 40.72C280.697 41.296 280.625 41.944 280.625 42.664C280.625 43.624 280.745 44.656 280.985 45.76C281.273 46.816 281.705 48.208 282.281 49.936C282.953 52 283.457 53.8 283.793 55.336C284.177 56.872 284.369 58.432 284.369 60.016C284.369 61.264 284.225 62.44 283.937 63.544C285.665 63.256 287.273 62.488 288.761 61.24C290.249 59.944 291.665 58 293.009 55.408L293.657 56.128C292.793 58.624 291.473 60.592 289.697 62.032C287.921 63.472 285.881 64.36 283.577 64.696C282.857 66.664 281.681 68.152 280.049 69.16C278.417 70.168 276.521 70.672 274.361 70.672ZM279.401 63.472C279.593 62.224 279.689 61.096 279.689 60.088C279.689 58.648 279.569 57.208 279.329 55.768C279.089 54.328 278.729 52.672 278.249 50.8C277.817 48.88 277.553 47.632 277.457 47.056C275.009 51.088 272.681 54.208 270.473 56.416C271.241 58.096 272.393 59.584 273.929 60.88C275.513 62.176 277.337 63.04 279.401 63.472ZM274.505 68.152C276.713 68.152 278.225 66.976 279.041 64.624C277.121 64.24 275.369 63.496 273.785 62.392C272.201 61.24 271.001 59.992 270.185 58.648C269.129 58.696 268.601 59.536 268.601 61.168C268.601 62.992 269.129 64.624 270.185 66.064C271.289 67.456 272.729 68.152 274.505 68.152ZM313.005 69.736C311.325 69.736 309.933 69.016 308.829 67.576C307.725 66.136 306.909 64.408 306.381 62.392C305.901 60.376 305.661 58.504 305.661 56.776C306.573 56.776 307.749 56.512 309.189 55.984C310.677 55.456 311.997 54.688 313.149 53.68C314.301 52.624 314.877 51.352 314.877 49.864C314.877 48.904 314.517 48.136 313.797 47.56C313.077 46.936 312.237 46.624 311.277 46.624C308.205 46.624 305.565 48.592 303.357 52.528C301.197 56.464 299.301 60.904 297.669 65.848L296.877 67.936C296.637 68.368 296.277 68.68 295.797 68.872C295.365 69.112 294.909 69.232 294.429 69.232C293.325 69.232 292.629 68.656 292.341 67.504C292.053 66.352 291.909 64.672 291.909 62.464C291.909 57.76 293.325 51.688 296.157 44.248C299.037 36.808 302.253 30.184 305.805 24.376C309.405 18.52 312.045 15.592 313.725 15.592C314.349 15.592 314.877 16.048 315.309 16.96C315.741 17.872 315.957 18.976 315.957 20.272C315.957 22.48 315.309 25 314.013 27.832C312.765 30.664 311.013 33.4 308.757 36.04C306.501 38.68 304.005 40.816 301.269 42.448C299.733 46.192 298.557 49.912 297.741 53.608C296.925 57.304 296.517 60.448 296.517 63.04C298.629 57.712 301.053 53.032 303.789 49C306.525 44.92 309.477 42.88 312.645 42.88C314.421 42.88 315.933 43.504 317.181 44.752C318.429 46 319.053 47.512 319.053 49.288C319.053 51.16 318.429 52.744 317.181 54.04C315.981 55.288 314.565 56.224 312.933 56.848C311.349 57.424 309.981 57.712 308.829 57.712C309.069 59.488 309.645 61.48 310.557 63.688C311.517 65.896 312.813 67 314.445 67C318.045 67 321.597 63.088 325.101 55.264L325.821 55.984C325.149 58.336 324.117 60.568 322.725 62.68C321.333 64.792 319.773 66.496 318.045 67.792C316.317 69.088 314.637 69.736 313.005 69.736ZM302.493 39.568C304.605 37.888 306.501 35.92 308.181 33.664C309.861 31.408 311.157 29.224 312.069 27.112C313.029 25 313.509 23.32 313.509 22.072C313.509 21.64 313.437 21.424 313.293 21.424C312.573 21.424 311.109 23.272 308.901 26.968C306.693 30.616 304.557 34.816 302.493 39.568ZM12.984 109.376C12.408 109.376 11.936 109.128 11.568 108.632C11.216 108.136 11.04 107.536 11.04 106.832C11.04 106.336 11.112 105.608 11.256 104.648C9.896 107.608 8.168 109.088 6.072 109.088C5.08 109.088 4.312 108.784 3.768 108.176C3.224 107.568 2.952 106.784 2.952 105.824C2.952 105.168 3.064 104.376 3.288 103.448C3.528 102.504 3.888 101.232 4.368 99.632C4.896 97.856 5.288 96.432 5.544 95.36C5.816 94.288 5.952 93.336 5.952 92.504C5.952 91.096 5.504 90.392 4.608 90.392C4.064 90.392 3.6 90.616 3.216 91.064C2.832 91.512 2.544 92.064 2.352 92.72C2.16 93.36 2.064 93.968 2.064 94.544C2.064 95.024 2.128 95.416 2.256 95.72C1.68 95.72 1.256 95.568 0.984 95.264C0.728 94.96 0.6 94.56 0.6 94.064C0.6 93.392 0.808 92.72 1.224 92.048C1.656 91.376 2.224 90.824 2.928 90.392C3.632 89.944 4.384 89.72 5.184 89.72C6.032 89.72 6.656 89.976 7.056 90.488C7.456 91 7.656 91.712 7.656 92.624C7.656 93.424 7.528 94.312 7.272 95.288C7.032 96.264 6.656 97.568 6.144 99.2C5.664 100.752 5.304 102 5.064 102.944C4.824 103.872 4.704 104.704 4.704 105.44C4.704 106.24 4.864 106.888 5.184 107.384C5.52 107.88 6.032 108.128 6.72 108.128C7.536 108.128 8.28 107.784 8.952 107.096C9.624 106.424 10.184 105.592 10.632 104.6C11.096 103.608 11.448 102.616 11.688 101.624C12.552 98.072 13.32 95.2 13.992 93.008C14.68 90.816 15.304 89.72 15.864 89.72C15.992 89.72 16.168 89.792 16.392 89.936C16.616 90.064 16.84 90.248 17.064 90.488C16.776 90.68 16.264 91.792 15.528 93.824C14.792 95.84 14.128 98.024 13.536 100.376C12.944 102.728 12.648 104.6 12.648 105.992C12.648 107.064 12.792 107.8 13.08 108.2C13.368 108.6 13.864 108.8 14.568 108.8C14.008 109.184 13.48 109.376 12.984 109.376ZM18.1404 107.72C17.4844 107.72 16.9964 107.496 16.6764 107.048C16.3724 106.6 16.2204 106 16.2204 105.248C16.2204 103.808 16.7164 101.856 17.7084 99.392C18.7004 96.912 19.8044 94.68 21.0204 92.696C22.2524 90.712 23.1404 89.72 23.6844 89.72C23.9084 89.72 24.0924 89.92 24.2364 90.32C24.3964 90.704 24.4764 91.096 24.4764 91.496C24.4764 92.232 24.1724 93.32 23.5644 94.76C22.9724 96.184 22.1884 97.632 21.2124 99.104C20.2364 100.576 19.1964 101.768 18.0924 102.68C17.8844 103.608 17.7804 104.416 17.7804 105.104C17.7804 106.336 18.1324 106.952 18.8364 106.952C19.4284 106.952 20.0284 106.576 20.6364 105.824C21.2604 105.072 21.8124 104.168 22.2924 103.112L22.6524 103.304C21.2764 106.248 19.7724 107.72 18.1404 107.72ZM18.3084 101.864C19.1884 100.984 20.0444 99.88 20.8764 98.552C21.7244 97.208 22.4124 95.928 22.9404 94.712C23.4684 93.48 23.7324 92.592 23.7324 92.048C23.7324 91.792 23.6764 91.664 23.5644 91.664C23.3404 91.664 22.8764 92.216 22.1724 93.32C21.4844 94.408 20.7724 95.744 20.0364 97.328C19.3004 98.912 18.7244 100.424 18.3084 101.864ZM23.8603 108.104C22.4363 108.104 21.7243 107.312 21.7243 105.728C21.7243 105.04 21.8443 104.192 22.0843 103.184C22.3403 102.16 22.6843 101.08 23.1163 99.944C22.7323 99.88 22.4443 99.816 22.2523 99.752V99.32C22.8283 99.384 23.1803 99.416 23.3083 99.416C24.0123 97.592 24.7643 96.016 25.5643 94.688C26.3803 93.344 27.0203 92.672 27.4843 92.672C27.6123 92.672 27.7243 92.72 27.8203 92.816C27.9323 92.912 27.9883 93.04 27.9883 93.2C27.9883 93.408 27.8843 93.712 27.6763 94.112C27.4843 94.512 27.1483 95.128 26.6683 95.96C26.5883 96.12 26.3403 96.568 25.9243 97.304C25.5083 98.024 25.1323 98.752 24.7963 99.488H25.6843C27.0123 99.488 28.1563 99.44 29.1163 99.344V99.776C27.3723 99.968 25.9643 100.064 24.8923 100.064H24.5323C23.6523 102.08 23.2123 103.824 23.2123 105.296C23.2123 105.984 23.3163 106.48 23.5243 106.784C23.7323 107.072 24.0763 107.216 24.5563 107.216C25.3723 107.216 26.1803 106.856 26.9803 106.136C27.7803 105.4 28.4923 104.392 29.1163 103.112L29.4283 103.352C28.8363 104.744 28.0363 105.888 27.0283 106.784C26.0203 107.664 24.9643 108.104 23.8603 108.104ZM32.8161 107.624C32.2721 107.624 31.8401 107.48 31.5201 107.192C31.2161 106.904 31.0641 106.528 31.0641 106.064C31.0641 105.52 31.2961 104.736 31.7601 103.712C31.9681 103.184 32.1201 102.768 32.2161 102.464C32.3281 102.144 32.3841 101.848 32.3841 101.576C32.3841 101.176 32.2881 100.864 32.0961 100.64C31.9201 100.4 31.7201 100.208 31.4961 100.064C31.2721 99.904 31.1201 99.8 31.0401 99.752C30.6881 100.648 30.3121 101.528 29.9121 102.392C29.5121 103.24 29.1761 103.896 28.9041 104.36L28.6881 103.952C29.4561 102.464 30.1041 100.944 30.6321 99.392C30.4721 99.232 30.3921 99.04 30.3921 98.816C30.3921 98.528 30.4481 98.256 30.5601 98C30.6881 97.744 30.8321 97.544 30.9921 97.4C31.1681 97.256 31.3041 97.184 31.4001 97.184C31.6241 97.184 31.7361 97.376 31.7361 97.76C31.7361 97.824 31.6961 97.968 31.6161 98.192C31.5361 98.416 31.4881 98.568 31.4721 98.648C31.4721 98.808 31.5361 98.96 31.6641 99.104C31.8081 99.232 32.0321 99.4 32.3361 99.608C32.8321 99.96 33.2161 100.312 33.4881 100.664C33.7761 101 33.9201 101.44 33.9201 101.984C33.9201 102.336 33.8641 102.688 33.7521 103.04C33.6401 103.376 33.4721 103.824 33.2481 104.384C32.8961 105.152 32.7201 105.704 32.7201 106.04C32.7201 106.52 32.9601 106.76 33.4401 106.76C33.9201 106.76 34.4321 106.568 34.9761 106.184C35.5361 105.8 36.0481 105.328 36.5121 104.768C36.9761 104.192 37.3121 103.664 37.5201 103.184L37.8321 103.424C37.3361 104.528 36.6161 105.504 35.6721 106.352C34.7281 107.2 33.7761 107.624 32.8161 107.624ZM38.1598 108.128C37.6318 108.128 37.2078 107.952 36.8878 107.6C36.5518 107.264 36.3838 106.776 36.3838 106.136C36.3838 105.192 36.7198 104.136 37.3918 102.968C38.0798 101.8 38.9438 100.808 39.9838 99.992C41.0238 99.176 42.0398 98.768 43.0318 98.768C43.6558 98.768 44.1758 98.936 44.5918 99.272C45.0078 99.608 45.2158 100.04 45.2158 100.568C45.2158 100.936 45.1118 101.2 44.9038 101.36C44.6958 101.52 44.4078 101.6 44.0398 101.6C44.1198 101.312 44.1598 101.032 44.1598 100.76C44.1598 100.36 44.0638 100.04 43.8718 99.8C43.6798 99.544 43.3838 99.416 42.9838 99.416C42.2798 99.416 41.5358 99.808 40.7518 100.592C39.9838 101.376 39.3358 102.312 38.8078 103.4C38.2958 104.488 38.0398 105.424 38.0398 106.208C38.0398 106.832 38.2558 107.144 38.6878 107.144C39.3278 107.144 40.0798 106.64 40.9438 105.632C41.8078 104.608 42.7358 103.368 43.7278 101.912C43.9358 101.944 44.1438 102.016 44.3518 102.128C44.5758 102.224 44.6878 102.352 44.6878 102.512C44.6878 102.64 44.6078 102.848 44.4478 103.136C44.3038 103.408 44.2158 103.568 44.1838 103.616C43.9118 104.08 43.6958 104.496 43.5358 104.864C43.3758 105.216 43.2958 105.544 43.2958 105.848C43.2958 106.12 43.3598 106.368 43.4878 106.592C43.6318 106.8 43.8398 106.904 44.1118 106.904C44.5758 106.904 45.1598 106.576 45.8638 105.92C46.5678 105.248 47.2638 104.312 47.9518 103.112L48.1918 103.352C47.8558 104.2 47.4238 104.96 46.8958 105.632C46.3678 106.288 45.7998 106.8 45.1918 107.168C44.5838 107.536 43.9998 107.72 43.4398 107.72C42.8798 107.72 42.4478 107.552 42.1438 107.216C41.8558 106.896 41.7118 106.504 41.7118 106.04C41.7118 105.832 41.7358 105.6 41.7838 105.344C41.0638 106.304 40.4158 107.008 39.8398 107.456C39.2798 107.904 38.7198 108.128 38.1598 108.128ZM49.3328 103.544C49.4928 103.096 49.9648 102.792 50.7488 102.632C51.5328 102.456 52.5728 102.368 53.8688 102.368C55.1648 102.368 56.5088 102.44 57.9008 102.584C57.2608 103.048 56.4368 103.28 55.4288 103.28H53.1488C52.3008 103.28 51.6288 103.296 51.1328 103.328C50.6528 103.36 50.0528 103.432 49.3328 103.544ZM62.6138 108.224C61.5738 108.224 60.8138 107.912 60.3338 107.288C59.8537 106.664 59.6137 105.928 59.6137 105.08C59.6137 104.44 59.7257 103.992 59.9497 103.736C60.1738 103.464 60.4138 103.272 60.6698 103.16C60.9418 103.048 61.1018 102.968 61.1498 102.92C62.1738 101.8 62.9658 100.64 63.5258 99.44V99.152C63.5258 98.608 63.6138 98.2 63.7898 97.928C63.9818 97.656 64.2058 97.52 64.4618 97.52C64.5898 97.52 64.6858 97.552 64.7498 97.616C64.8138 97.664 64.8458 97.736 64.8458 97.832C64.8458 97.896 64.8218 98.032 64.7738 98.24C64.7258 98.432 64.7018 98.648 64.7018 98.888C64.7018 99.208 64.7418 99.552 64.8218 99.92C64.9178 100.272 65.0618 100.736 65.2538 101.312C65.4778 102 65.6458 102.6 65.7578 103.112C65.8858 103.624 65.9498 104.144 65.9498 104.672C65.9498 105.088 65.9018 105.48 65.8058 105.848C66.3818 105.752 66.9178 105.496 67.4138 105.08C67.9098 104.648 68.3818 104 68.8298 103.136L69.0458 103.376C68.7578 104.208 68.3178 104.864 67.7258 105.344C67.1338 105.824 66.4538 106.12 65.6858 106.232C65.4458 106.888 65.0538 107.384 64.5098 107.72C63.9658 108.056 63.3338 108.224 62.6138 108.224ZM64.2938 105.824C64.3578 105.408 64.3898 105.032 64.3898 104.696C64.3898 104.216 64.3498 103.736 64.2698 103.256C64.1898 102.776 64.0698 102.224 63.9098 101.6C63.7658 100.96 63.6778 100.544 63.6458 100.352C62.8298 101.696 62.0538 102.736 61.3178 103.472C61.5738 104.032 61.9578 104.528 62.4698 104.96C62.9978 105.392 63.6058 105.68 64.2938 105.824ZM62.6618 107.384C63.3978 107.384 63.9018 106.992 64.1738 106.208C63.5338 106.08 62.9498 105.832 62.4218 105.464C61.8938 105.08 61.4938 104.664 61.2218 104.216C60.8698 104.232 60.6938 104.512 60.6938 105.056C60.6938 105.664 60.8698 106.208 61.2218 106.688C61.5898 107.152 62.0698 107.384 62.6618 107.384ZM72.9752 96.632C72.6872 96.632 72.4472 96.568 72.2552 96.44C72.0792 96.296 71.9912 96.096 71.9912 95.84C71.9912 95.52 72.1832 95.232 72.5672 94.976C72.9512 94.72 73.3432 94.592 73.7432 94.592C74.2712 94.592 74.5352 94.84 74.5352 95.336C74.5352 95.64 74.3672 95.936 74.0312 96.224C73.7112 96.496 73.3592 96.632 72.9752 96.632ZM70.0952 107.624C69.5032 107.624 69.0472 107.432 68.7272 107.048C68.4072 106.68 68.2472 106.2 68.2472 105.608C68.2472 104.984 68.4232 104.12 68.7752 103.016C69.1432 101.912 69.5912 100.944 70.1192 100.112C70.6632 99.28 71.1912 98.864 71.7032 98.864C71.8472 98.864 71.9672 98.912 72.0632 99.008C72.1752 99.104 72.2312 99.232 72.2312 99.392C72.2312 99.616 71.9752 100.152 71.4632 101C70.9352 101.88 70.5112 102.672 70.1912 103.376C69.8872 104.064 69.7352 104.72 69.7352 105.344C69.7352 105.904 69.8232 106.288 69.9992 106.496C70.1912 106.688 70.4952 106.784 70.9112 106.784C72.1592 106.784 73.3912 105.56 74.6072 103.112L74.8232 103.352C74.3752 104.696 73.7112 105.744 72.8312 106.496C71.9672 107.248 71.0552 107.624 70.0952 107.624ZM86.2523 107.744C85.7243 107.744 85.3243 107.576 85.0523 107.24C84.7803 106.92 84.6443 106.504 84.6443 105.992C84.6443 105.56 84.7723 104.928 85.0283 104.096C85.1083 103.824 85.1803 103.552 85.2443 103.28C85.3243 103.008 85.3643 102.776 85.3643 102.584C85.3643 102.296 85.2923 102.08 85.1483 101.936C85.0203 101.792 84.8603 101.72 84.6683 101.72C84.3003 101.72 83.9003 101.984 83.4683 102.512C83.0523 103.024 82.4043 103.952 81.5243 105.296C81.3003 105.648 80.9883 106.24 80.5883 107.072L80.3723 107.528C80.1163 107.528 79.8443 107.48 79.5563 107.384C79.2843 107.304 79.1483 107.192 79.1483 107.048C79.1483 106.936 79.2843 106.512 79.5563 105.776C79.8923 104.784 80.1563 103.952 80.3483 103.28C80.5563 102.592 80.6603 102.008 80.6603 101.528C80.6603 100.92 80.4603 100.616 80.0603 100.616C79.6123 100.616 79.0283 100.976 78.3083 101.696C77.6043 102.416 76.9083 103.328 76.2203 104.432C75.5323 105.52 74.9963 106.592 74.6123 107.648C74.3723 107.648 74.1002 107.592 73.7962 107.48C73.4762 107.368 73.3162 107.256 73.3162 107.144C73.3162 107.096 73.4282 106.72 73.6522 106.016C74.0202 104.944 74.3243 103.96 74.5643 103.064C74.8203 102.168 74.9563 101.392 74.9723 100.736C75.0843 100.608 75.2443 100.496 75.4523 100.4C75.6603 100.288 75.8683 100.232 76.0763 100.232C76.5083 100.232 76.7243 100.44 76.7243 100.856C76.7243 101.288 76.5163 102.2 76.1003 103.592C76.8843 102.344 77.7243 101.272 78.6203 100.376C79.5323 99.48 80.3803 99.032 81.1643 99.032C81.6283 99.032 81.9563 99.2 82.1483 99.536C82.3563 99.872 82.4603 100.312 82.4603 100.856C82.4603 101.4 82.3803 101.992 82.2203 102.632C82.0603 103.272 81.8923 103.808 81.7163 104.24C82.3243 103.136 82.9563 102.248 83.6123 101.576C84.2683 100.888 84.9643 100.544 85.7003 100.544C86.1803 100.544 86.5243 100.688 86.7323 100.976C86.9563 101.264 87.0683 101.632 87.0683 102.08C87.0683 102.384 87.0283 102.712 86.9483 103.064C86.8683 103.4 86.7483 103.816 86.5883 104.312C86.3163 105.16 86.1803 105.752 86.1803 106.088C86.1803 106.632 86.4203 106.904 86.9003 106.904C87.4923 106.904 88.0523 106.544 88.5803 105.824C89.1083 105.088 89.6203 104.184 90.1163 103.112L90.4043 103.448C89.9563 104.632 89.3723 105.648 88.6523 106.496C87.9323 107.328 87.1323 107.744 86.2523 107.744ZM88.1599 113.72C88.0319 113.72 87.9119 113.656 87.7999 113.528C87.6879 113.4 87.5919 113.256 87.5119 113.096C87.4319 112.936 87.3999 112.84 87.4159 112.808C87.6399 112.04 87.9119 111.192 88.2319 110.264C88.5839 109.24 88.8799 108.304 89.1199 107.456C89.3599 106.608 89.6079 105.464 89.8639 104.024C90.1359 102.568 90.4079 100.712 90.6799 98.456C90.6959 98.296 90.7279 98.192 90.7759 98.144C90.8399 98.08 90.9599 98.048 91.1359 98.048C91.5199 98.048 91.8079 98.16 91.9999 98.384C92.1919 98.592 92.2879 98.848 92.2879 99.152C92.2879 99.6 92.1039 100.68 91.7359 102.392C92.2319 101.432 92.8319 100.608 93.5359 99.92C94.2559 99.216 95.0399 98.864 95.8879 98.864C96.5919 98.864 97.1679 99.12 97.6159 99.632C98.0799 100.128 98.3119 100.784 98.3119 101.6C98.3119 102.448 98.0639 103.352 97.5679 104.312C97.0719 105.256 96.3839 106.048 95.5039 106.688C94.6399 107.312 93.6879 107.624 92.6479 107.624C92.2479 107.624 91.9119 107.576 91.6399 107.48C91.3839 107.4 91.2559 107.304 91.2559 107.192C91.2559 107.144 91.3119 107.112 91.4239 107.096C91.5519 107.08 91.6959 107.072 91.8559 107.072C92.6879 107.072 93.4799 106.808 94.2319 106.28C94.9839 105.752 95.5919 105.08 96.0559 104.264C96.5199 103.448 96.7519 102.632 96.7519 101.816C96.7519 101.272 96.6319 100.832 96.3919 100.496C96.1679 100.144 95.8319 99.968 95.3839 99.968C94.8719 99.968 94.3439 100.184 93.7999 100.616C93.2719 101.032 92.7919 101.544 92.3599 102.152C91.9439 102.744 91.6239 103.304 91.3999 103.832C90.8079 106.36 90.2319 108.552 89.6719 110.408C89.1279 112.28 88.7199 113.344 88.4479 113.6C88.3679 113.68 88.2719 113.72 88.1599 113.72ZM101.039 107.72C100.383 107.72 99.8949 107.496 99.5749 107.048C99.2709 106.6 99.1189 106 99.1189 105.248C99.1189 103.808 99.6149 101.856 100.607 99.392C101.599 96.912 102.703 94.68 103.919 92.696C105.151 90.712 106.039 89.72 106.583 89.72C106.807 89.72 106.991 89.92 107.135 90.32C107.295 90.704 107.375 91.096 107.375 91.496C107.375 92.232 107.071 93.32 106.463 94.76C105.871 96.184 105.087 97.632 104.111 99.104C103.135 100.576 102.095 101.768 100.991 102.68C100.783 103.608 100.679 104.416 100.679 105.104C100.679 106.336 101.031 106.952 101.735 106.952C102.327 106.952 102.927 106.576 103.535 105.824C104.159 105.072 104.711 104.168 105.191 103.112L105.551 103.304C104.175 106.248 102.671 107.72 101.039 107.72ZM101.207 101.864C102.087 100.984 102.943 99.88 103.775 98.552C104.623 97.208 105.311 95.928 105.839 94.712C106.367 93.48 106.631 92.592 106.631 92.048C106.631 91.792 106.575 91.664 106.463 91.664C106.239 91.664 105.775 92.216 105.071 93.32C104.383 94.408 103.671 95.744 102.935 97.328C102.199 98.912 101.623 100.424 101.207 101.864ZM107.311 108.056C106.367 108.056 105.639 107.792 105.127 107.264C104.631 106.752 104.383 106.088 104.383 105.272C104.383 104.328 104.695 103.312 105.319 102.224C105.943 101.136 106.727 100.224 107.671 99.488C108.631 98.736 109.567 98.36 110.479 98.36C111.471 98.36 111.967 98.848 111.967 99.824C111.967 100.608 111.671 101.344 111.079 102.032C110.487 102.704 109.727 103.256 108.799 103.688C107.871 104.12 106.943 104.384 106.015 104.48C105.951 104.752 105.919 105.04 105.919 105.344C105.919 105.92 106.063 106.4 106.351 106.784C106.639 107.168 107.127 107.36 107.815 107.36C108.791 107.36 109.775 106.952 110.767 106.136C111.759 105.32 112.567 104.312 113.191 103.112L113.479 103.328C112.839 104.752 111.951 105.896 110.815 106.76C109.679 107.624 108.511 108.056 107.311 108.056ZM106.135 104.024C106.807 103.784 107.511 103.448 108.247 103.016C108.983 102.584 109.607 102.08 110.119 101.504C110.647 100.912 110.911 100.296 110.911 99.656C110.911 99.464 110.871 99.328 110.791 99.248C110.727 99.152 110.599 99.104 110.407 99.104C109.911 99.104 109.367 99.352 108.775 99.848C108.199 100.344 107.663 100.976 107.167 101.744C106.687 102.512 106.343 103.272 106.135 104.024ZM112.879 109.112C112.607 108.952 112.471 108.656 112.471 108.224C112.471 107.696 112.631 107.136 112.951 106.544C113.271 105.952 113.599 105.656 113.935 105.656C114.095 105.656 114.231 105.728 114.343 105.872C114.471 106 114.535 106.152 114.535 106.328C114.199 106.68 113.927 107.032 113.719 107.384C113.511 107.752 113.335 108.096 113.191 108.416C113.047 108.752 112.943 108.984 112.879 109.112ZM123.344 113.72C123.008 113.72 122.704 113.56 122.432 113.24C122.16 112.936 122.024 112.392 122.024 111.608C122.024 109.928 122.624 107.288 123.824 103.688C125.024 100.072 126.424 96.84 128.024 93.992C129.64 91.144 131.064 89.72 132.296 89.72C132.6 89.72 132.808 89.816 132.92 90.008C133.048 90.184 133.112 90.44 133.112 90.776C133.112 91.656 132.8 92.656 132.176 93.776C131.552 94.896 130.744 95.992 129.752 97.064C128.76 98.136 127.744 99.032 126.704 99.752C126.592 100.008 126.44 100.408 126.248 100.952C126.408 100.984 126.536 101.08 126.632 101.24C126.744 101.384 126.816 101.544 126.848 101.72C126.976 102.616 127.104 103.312 127.232 103.808C127.36 104.304 127.552 104.704 127.808 105.008C128.08 105.312 128.456 105.464 128.936 105.464C129.464 105.464 129.912 105.28 130.28 104.912C130.664 104.544 131.104 103.944 131.6 103.112L131.96 103.352C131.576 104.248 131.088 104.928 130.496 105.392C129.904 105.856 129.344 106.088 128.816 106.088C128.528 106.088 128.224 106.016 127.904 105.872C127.6 105.728 127.312 105.536 127.04 105.296C127.04 106.608 126.856 107.92 126.488 109.232C126.12 110.544 125.648 111.616 125.072 112.448C124.512 113.296 123.936 113.72 123.344 113.72ZM127.088 98.768C128.064 97.872 128.936 96.936 129.704 95.96C130.488 94.984 131.096 94.112 131.528 93.344C131.96 92.56 132.176 92 132.176 91.664C132.176 91.44 132.064 91.328 131.84 91.328C131.248 91.328 130.528 92.024 129.68 93.416C128.832 94.792 127.968 96.576 127.088 98.768ZM123.968 112.568C124.256 112.568 124.592 112.16 124.976 111.344C125.376 110.528 125.712 109.56 125.984 108.44C126.272 107.336 126.416 106.376 126.416 105.56C126.416 105.08 126.352 104.64 126.224 104.24C126.112 103.84 125.904 103.344 125.6 102.752C124.976 104.592 124.472 106.296 124.088 107.864C123.704 109.432 123.512 110.616 123.512 111.416C123.512 111.784 123.552 112.064 123.632 112.256C123.712 112.464 123.824 112.568 123.968 112.568ZM132.285 108.128C131.757 108.128 131.333 107.952 131.013 107.6C130.677 107.264 130.509 106.776 130.509 106.136C130.509 105.192 130.845 104.136 131.517 102.968C132.205 101.8 133.069 100.808 134.109 99.992C135.149 99.176 136.165 98.768 137.157 98.768C137.781 98.768 138.301 98.936 138.717 99.272C139.133 99.608 139.341 100.04 139.341 100.568C139.341 100.936 139.237 101.2 139.029 101.36C138.821 101.52 138.533 101.6 138.165 101.6C138.245 101.312 138.285 101.032 138.285 100.76C138.285 100.36 138.189 100.04 137.997 99.8C137.805 99.544 137.509 99.416 137.109 99.416C136.405 99.416 135.661 99.808 134.877 100.592C134.109 101.376 133.461 102.312 132.933 103.4C132.421 104.488 132.165 105.424 132.165 106.208C132.165 106.832 132.381 107.144 132.813 107.144C133.453 107.144 134.205 106.64 135.069 105.632C135.933 104.608 136.861 103.368 137.853 101.912C138.061 101.944 138.269 102.016 138.477 102.128C138.701 102.224 138.813 102.352 138.813 102.512C138.813 102.64 138.733 102.848 138.573 103.136C138.429 103.408 138.341 103.568 138.309 103.616C138.037 104.08 137.821 104.496 137.661 104.864C137.501 105.216 137.421 105.544 137.421 105.848C137.421 106.12 137.485 106.368 137.613 106.592C137.757 106.8 137.965 106.904 138.237 106.904C138.701 106.904 139.285 106.576 139.989 105.92C140.693 105.248 141.389 104.312 142.077 103.112L142.317 103.352C141.981 104.2 141.549 104.96 141.021 105.632C140.493 106.288 139.925 106.8 139.317 107.168C138.709 107.536 138.125 107.72 137.565 107.72C137.005 107.72 136.573 107.552 136.269 107.216C135.981 106.896 135.837 106.504 135.837 106.04C135.837 105.832 135.861 105.6 135.909 105.344C135.189 106.304 134.541 107.008 133.965 107.456C133.405 107.904 132.845 108.128 132.285 108.128ZM144.106 108.224C143.066 108.224 142.306 107.912 141.826 107.288C141.346 106.664 141.106 105.928 141.106 105.08C141.106 104.44 141.218 103.992 141.442 103.736C141.666 103.464 141.906 103.272 142.162 103.16C142.434 103.048 142.594 102.968 142.642 102.92C143.666 101.8 144.458 100.64 145.018 99.44V99.152C145.018 98.608 145.106 98.2 145.282 97.928C145.474 97.656 145.698 97.52 145.954 97.52C146.082 97.52 146.178 97.552 146.242 97.616C146.306 97.664 146.338 97.736 146.338 97.832C146.338 97.896 146.314 98.032 146.266 98.24C146.218 98.432 146.194 98.648 146.194 98.888C146.194 99.208 146.234 99.552 146.314 99.92C146.41 100.272 146.554 100.736 146.746 101.312C146.97 102 147.138 102.6 147.25 103.112C147.378 103.624 147.442 104.144 147.442 104.672C147.442 105.088 147.394 105.48 147.298 105.848C147.874 105.752 148.41 105.496 148.906 105.08C149.402 104.648 149.874 104 150.322 103.136L150.538 103.376C150.25 104.208 149.81 104.864 149.218 105.344C148.626 105.824 147.946 106.12 147.178 106.232C146.938 106.888 146.546 107.384 146.002 107.72C145.458 108.056 144.826 108.224 144.106 108.224ZM145.786 105.824C145.85 105.408 145.882 105.032 145.882 104.696C145.882 104.216 145.842 103.736 145.762 103.256C145.682 102.776 145.562 102.224 145.402 101.6C145.258 100.96 145.17 100.544 145.138 100.352C144.322 101.696 143.546 102.736 142.81 103.472C143.066 104.032 143.45 104.528 143.962 104.96C144.49 105.392 145.098 105.68 145.786 105.824ZM144.154 107.384C144.89 107.384 145.394 106.992 145.666 106.208C145.026 106.08 144.442 105.832 143.914 105.464C143.386 105.08 142.986 104.664 142.714 104.216C142.362 104.232 142.186 104.512 142.186 105.056C142.186 105.664 142.362 106.208 142.714 106.688C143.082 107.152 143.562 107.384 144.154 107.384ZM151.899 108.104C150.475 108.104 149.763 107.312 149.763 105.728C149.763 105.04 149.883 104.192 150.123 103.184C150.379 102.16 150.723 101.08 151.155 99.944C150.771 99.88 150.483 99.816 150.291 99.752V99.32C150.867 99.384 151.219 99.416 151.347 99.416C152.051 97.592 152.803 96.016 153.603 94.688C154.419 93.344 155.059 92.672 155.523 92.672C155.651 92.672 155.763 92.72 155.859 92.816C155.971 92.912 156.027 93.04 156.027 93.2C156.027 93.408 155.923 93.712 155.715 94.112C155.523 94.512 155.187 95.128 154.707 95.96C154.627 96.12 154.379 96.568 153.963 97.304C153.547 98.024 153.171 98.752 152.835 99.488H153.723C155.051 99.488 156.195 99.44 157.155 99.344V99.776C155.411 99.968 154.003 100.064 152.931 100.064H152.571C151.691 102.08 151.251 103.824 151.251 105.296C151.251 105.984 151.355 106.48 151.563 106.784C151.771 107.072 152.115 107.216 152.595 107.216C153.411 107.216 154.219 106.856 155.019 106.136C155.819 105.4 156.531 104.392 157.155 103.112L157.467 103.352C156.875 104.744 156.075 105.888 155.067 106.784C154.059 107.664 153.003 108.104 151.899 108.104ZM158.669 103.544C158.829 103.096 159.301 102.792 160.085 102.632C160.869 102.456 161.909 102.368 163.205 102.368C164.501 102.368 165.845 102.44 167.237 102.584C166.597 103.048 165.773 103.28 164.765 103.28H162.485C161.637 103.28 160.965 103.296 160.469 103.328C159.989 103.36 159.389 103.432 158.669 103.544ZM171.47 108.104C170.046 108.104 169.334 107.312 169.334 105.728C169.334 105.04 169.454 104.192 169.694 103.184C169.95 102.16 170.294 101.08 170.726 99.944C170.342 99.88 170.054 99.816 169.862 99.752V99.32C170.438 99.384 170.79 99.416 170.918 99.416C171.622 97.592 172.374 96.016 173.174 94.688C173.99 93.344 174.63 92.672 175.094 92.672C175.222 92.672 175.334 92.72 175.43 92.816C175.542 92.912 175.598 93.04 175.598 93.2C175.598 93.408 175.494 93.712 175.286 94.112C175.094 94.512 174.758 95.128 174.278 95.96C174.198 96.12 173.95 96.568 173.534 97.304C173.118 98.024 172.742 98.752 172.406 99.488H173.294C174.622 99.488 175.766 99.44 176.726 99.344V99.776C174.982 99.968 173.574 100.064 172.502 100.064H172.142C171.262 102.08 170.822 103.824 170.822 105.296C170.822 105.984 170.926 106.48 171.134 106.784C171.342 107.072 171.686 107.216 172.166 107.216C172.982 107.216 173.79 106.856 174.59 106.136C175.39 105.4 176.102 104.392 176.726 103.112L177.038 103.352C176.446 104.744 175.646 105.888 174.638 106.784C173.63 107.664 172.574 108.104 171.47 108.104ZM177.929 107.768C177.273 107.768 176.793 107.568 176.489 107.168C176.185 106.768 176.033 106.24 176.033 105.584C176.033 104.928 176.169 104.24 176.441 103.52C176.713 102.8 177.065 102.2 177.497 101.72C177.929 101.24 178.361 101 178.793 101C178.937 101 179.105 101.04 179.297 101.12C179.105 101.28 178.873 101.632 178.601 102.176C178.329 102.72 178.089 103.304 177.881 103.928C177.689 104.536 177.593 105.032 177.593 105.416C177.593 106.328 177.881 106.784 178.457 106.784C178.793 106.784 179.193 106.608 179.657 106.256C180.121 105.904 180.577 105.44 181.025 104.864C180.577 104.496 180.225 104.016 179.969 103.424C179.729 102.832 179.609 102.216 179.609 101.576C179.609 100.744 179.817 100.032 180.233 99.44C180.665 98.848 181.241 98.552 181.961 98.552C182.569 98.552 182.993 98.72 183.233 99.056C183.489 99.376 183.617 99.824 183.617 100.4C183.617 101.008 183.465 101.696 183.161 102.464C182.873 103.216 182.489 103.952 182.009 104.672C182.297 104.832 182.601 104.912 182.921 104.912C183.385 104.912 183.865 104.776 184.361 104.504C184.857 104.216 185.233 103.776 185.489 103.184L185.777 103.424C185.473 104.128 185.041 104.648 184.481 104.984C183.921 105.32 183.345 105.488 182.753 105.488C182.321 105.488 181.937 105.408 181.601 105.248C181.025 106 180.409 106.608 179.753 107.072C179.113 107.536 178.505 107.768 177.929 107.768ZM181.457 104.24C181.873 103.616 182.209 102.984 182.465 102.344C182.721 101.688 182.849 101.088 182.849 100.544C182.849 100.096 182.777 99.76 182.633 99.536C182.505 99.312 182.337 99.2 182.129 99.2C181.905 99.2 181.673 99.312 181.433 99.536C181.209 99.744 181.017 100.04 180.857 100.424C180.713 100.792 180.641 101.2 180.641 101.648C180.641 102.144 180.705 102.624 180.833 103.088C180.977 103.536 181.185 103.92 181.457 104.24ZM187.028 103.544C187.188 103.096 187.66 102.792 188.444 102.632C189.228 102.456 190.268 102.368 191.564 102.368C192.86 102.368 194.204 102.44 195.596 102.584C194.956 103.048 194.132 103.28 193.124 103.28H190.844C189.996 103.28 189.324 103.296 188.828 103.328C188.348 103.36 187.748 103.432 187.028 103.544ZM209.885 107.744C209.357 107.744 208.957 107.576 208.685 107.24C208.413 106.92 208.277 106.504 208.277 105.992C208.277 105.56 208.405 104.928 208.661 104.096C208.741 103.824 208.813 103.552 208.877 103.28C208.957 103.008 208.997 102.776 208.997 102.584C208.997 102.296 208.925 102.08 208.781 101.936C208.653 101.792 208.493 101.72 208.301 101.72C207.933 101.72 207.533 101.984 207.101 102.512C206.685 103.024 206.037 103.952 205.157 105.296C204.933 105.648 204.621 106.24 204.221 107.072L204.005 107.528C203.749 107.528 203.477 107.48 203.189 107.384C202.917 107.304 202.781 107.192 202.781 107.048C202.781 106.936 202.917 106.512 203.189 105.776C203.525 104.784 203.789 103.952 203.981 103.28C204.189 102.592 204.293 102.008 204.293 101.528C204.293 100.92 204.093 100.616 203.693 100.616C203.245 100.616 202.661 100.976 201.941 101.696C201.237 102.416 200.541 103.328 199.853 104.432C199.165 105.52 198.629 106.592 198.245 107.648C198.005 107.648 197.733 107.592 197.429 107.48C197.109 107.368 196.949 107.256 196.949 107.144C196.949 107.096 197.061 106.72 197.285 106.016C197.653 104.944 197.957 103.96 198.197 103.064C198.453 102.168 198.589 101.392 198.605 100.736C198.717 100.608 198.877 100.496 199.085 100.4C199.293 100.288 199.501 100.232 199.709 100.232C200.141 100.232 200.357 100.44 200.357 100.856C200.357 101.288 200.149 102.2 199.733 103.592C200.517 102.344 201.357 101.272 202.253 100.376C203.165 99.48 204.013 99.032 204.797 99.032C205.261 99.032 205.589 99.2 205.781 99.536C205.989 99.872 206.093 100.312 206.093 100.856C206.093 101.4 206.013 101.992 205.853 102.632C205.693 103.272 205.525 103.808 205.349 104.24C205.957 103.136 206.589 102.248 207.245 101.576C207.901 100.888 208.597 100.544 209.333 100.544C209.813 100.544 210.157 100.688 210.365 100.976C210.589 101.264 210.701 101.632 210.701 102.08C210.701 102.384 210.661 102.712 210.581 103.064C210.501 103.4 210.381 103.816 210.221 104.312C209.949 105.16 209.813 105.752 209.813 106.088C209.813 106.632 210.053 106.904 210.533 106.904C211.125 106.904 211.685 106.544 212.213 105.824C212.741 105.088 213.253 104.184 213.749 103.112L214.037 103.448C213.589 104.632 213.005 105.648 212.285 106.496C211.565 107.328 210.765 107.744 209.885 107.744ZM214.457 108.128C213.929 108.128 213.505 107.952 213.185 107.6C212.849 107.264 212.681 106.776 212.681 106.136C212.681 105.192 213.017 104.136 213.689 102.968C214.377 101.8 215.241 100.808 216.281 99.992C217.321 99.176 218.337 98.768 219.329 98.768C219.953 98.768 220.473 98.936 220.889 99.272C221.305 99.608 221.513 100.04 221.513 100.568C221.513 100.936 221.409 101.2 221.201 101.36C220.993 101.52 220.705 101.6 220.337 101.6C220.417 101.312 220.457 101.032 220.457 100.76C220.457 100.36 220.361 100.04 220.169 99.8C219.977 99.544 219.681 99.416 219.281 99.416C218.577 99.416 217.833 99.808 217.049 100.592C216.281 101.376 215.633 102.312 215.105 103.4C214.593 104.488 214.337 105.424 214.337 106.208C214.337 106.832 214.553 107.144 214.985 107.144C215.625 107.144 216.377 106.64 217.241 105.632C218.105 104.608 219.033 103.368 220.025 101.912C220.233 101.944 220.441 102.016 220.649 102.128C220.873 102.224 220.985 102.352 220.985 102.512C220.985 102.64 220.905 102.848 220.745 103.136C220.601 103.408 220.513 103.568 220.481 103.616C220.209 104.08 219.993 104.496 219.833 104.864C219.673 105.216 219.593 105.544 219.593 105.848C219.593 106.12 219.657 106.368 219.785 106.592C219.929 106.8 220.137 106.904 220.409 106.904C220.873 106.904 221.457 106.576 222.161 105.92C222.865 105.248 223.561 104.312 224.249 103.112L224.489 103.352C224.153 104.2 223.721 104.96 223.193 105.632C222.665 106.288 222.097 106.8 221.489 107.168C220.881 107.536 220.297 107.72 219.737 107.72C219.177 107.72 218.745 107.552 218.441 107.216C218.153 106.896 218.009 106.504 218.009 106.04C218.009 105.832 218.033 105.6 218.081 105.344C217.361 106.304 216.713 107.008 216.137 107.456C215.577 107.904 215.017 108.128 214.457 108.128ZM230.886 107.912C230.326 107.912 229.862 107.672 229.494 107.192C229.126 106.712 228.854 106.136 228.678 105.464C228.518 104.792 228.438 104.168 228.438 103.592C228.742 103.592 229.134 103.504 229.614 103.328C230.11 103.152 230.55 102.896 230.934 102.56C231.318 102.208 231.51 101.784 231.51 101.288C231.51 100.968 231.39 100.712 231.15 100.52C230.91 100.312 230.63 100.208 230.31 100.208C229.286 100.208 228.406 100.864 227.67 102.176C226.95 103.488 226.318 104.968 225.774 106.616L225.51 107.312C225.43 107.456 225.31 107.56 225.15 107.624C225.006 107.704 224.854 107.744 224.694 107.744C224.326 107.744 224.094 107.552 223.998 107.168C223.902 106.784 223.854 106.224 223.854 105.488C223.854 103.92 224.326 101.896 225.27 99.416C226.23 96.936 227.302 94.728 228.486 92.792C229.686 90.84 230.566 89.864 231.126 89.864C231.334 89.864 231.51 90.016 231.654 90.32C231.798 90.624 231.87 90.992 231.87 91.424C231.87 92.16 231.654 93 231.222 93.944C230.806 94.888 230.222 95.8 229.47 96.68C228.718 97.56 227.886 98.272 226.974 98.816C226.462 100.064 226.07 101.304 225.798 102.536C225.526 103.768 225.39 104.816 225.39 105.68C226.094 103.904 226.902 102.344 227.814 101C228.726 99.64 229.71 98.96 230.766 98.96C231.358 98.96 231.862 99.168 232.278 99.584C232.694 100 232.902 100.504 232.902 101.096C232.902 101.72 232.694 102.248 232.278 102.68C231.878 103.096 231.406 103.408 230.862 103.616C230.334 103.808 229.878 103.904 229.494 103.904C229.574 104.496 229.766 105.16 230.07 105.896C230.39 106.632 230.822 107 231.366 107C232.566 107 233.75 105.696 234.918 103.088L235.158 103.328C234.934 104.112 234.59 104.856 234.126 105.56C233.662 106.264 233.142 106.832 232.566 107.264C231.99 107.696 231.43 107.912 230.886 107.912ZM227.382 97.856C228.086 97.296 228.718 96.64 229.278 95.888C229.838 95.136 230.27 94.408 230.574 93.704C230.894 93 231.054 92.44 231.054 92.024C231.054 91.88 231.03 91.808 230.982 91.808C230.742 91.808 230.254 92.424 229.518 93.656C228.782 94.872 228.07 96.272 227.382 97.856ZM237.061 108.056C236.117 108.056 235.389 107.792 234.877 107.264C234.381 106.752 234.133 106.088 234.133 105.272C234.133 104.328 234.445 103.312 235.069 102.224C235.693 101.136 236.477 100.224 237.421 99.488C238.381 98.736 239.317 98.36 240.229 98.36C241.221 98.36 241.717 98.848 241.717 99.824C241.717 100.608 241.421 101.344 240.829 102.032C240.237 102.704 239.477 103.256 238.549 103.688C237.621 104.12 236.693 104.384 235.765 104.48C235.701 104.752 235.669 105.04 235.669 105.344C235.669 105.92 235.813 106.4 236.101 106.784C236.389 107.168 236.877 107.36 237.565 107.36C238.541 107.36 239.525 106.952 240.517 106.136C241.509 105.32 242.317 104.312 242.941 103.112L243.229 103.328C242.589 104.752 241.701 105.896 240.565 106.76C239.429 107.624 238.261 108.056 237.061 108.056ZM235.885 104.024C236.557 103.784 237.261 103.448 237.997 103.016C238.733 102.584 239.357 102.08 239.869 101.504C240.397 100.912 240.661 100.296 240.661 99.656C240.661 99.464 240.621 99.328 240.541 99.248C240.477 99.152 240.349 99.104 240.157 99.104C239.661 99.104 239.117 99.352 238.525 99.848C237.949 100.344 237.413 100.976 236.917 101.744C236.437 102.512 236.093 103.272 235.885 104.024ZM242.629 109.112C242.357 108.952 242.221 108.656 242.221 108.224C242.221 107.696 242.381 107.136 242.701 106.544C243.021 105.952 243.349 105.656 243.685 105.656C243.845 105.656 243.981 105.728 244.093 105.872C244.221 106 244.285 106.152 244.285 106.328C243.949 106.68 243.677 107.032 243.469 107.384C243.261 107.752 243.085 108.096 242.941 108.416C242.797 108.752 242.693 108.984 242.629 109.112ZM254.318 113.72C253.934 113.72 253.606 113.6 253.334 113.36C253.062 113.136 252.926 112.792 252.926 112.328C252.926 111.736 253.158 111.184 253.622 110.672C254.086 110.176 254.614 109.744 255.206 109.376C255.814 109.024 256.614 108.6 257.606 108.104C258.054 106.952 258.462 105.632 258.83 104.144C257.406 106.192 256.102 107.216 254.918 107.216C254.358 107.216 253.918 107.008 253.598 106.592C253.278 106.16 253.118 105.592 253.118 104.888C253.118 103.832 253.454 102.824 254.126 101.864C254.814 100.904 255.654 100.136 256.646 99.56C257.654 98.968 258.598 98.672 259.478 98.672C259.91 98.672 260.23 98.744 260.438 98.888C260.662 99.032 260.774 99.216 260.774 99.44C260.774 99.568 260.734 99.68 260.654 99.776C260.59 99.856 260.534 99.904 260.486 99.92C260.326 99.68 260.006 99.56 259.526 99.56C258.726 99.56 257.95 99.864 257.198 100.472C256.462 101.08 255.862 101.816 255.398 102.68C254.934 103.544 254.702 104.32 254.702 105.008C254.702 105.392 254.774 105.688 254.918 105.896C255.078 106.088 255.286 106.184 255.542 106.184C255.974 106.184 256.51 105.888 257.15 105.296C257.806 104.704 258.454 103.944 259.094 103.016L259.382 101.744C259.446 101.44 259.574 101.16 259.766 100.904C259.974 100.648 260.254 100.52 260.606 100.52C260.75 100.52 260.918 100.544 261.11 100.592C261.11 101.024 260.934 101.896 260.582 103.208C260.23 104.504 259.79 105.824 259.262 107.168C260.094 106.768 260.862 106.216 261.566 105.512C262.286 104.792 262.822 103.992 263.174 103.112L263.486 103.352C263.15 104.328 262.542 105.216 261.662 106.016C260.798 106.816 259.91 107.432 258.998 107.864C258.246 109.688 257.486 111.12 256.718 112.16C255.95 113.2 255.15 113.72 254.318 113.72ZM254.246 112.952C254.614 112.952 255.07 112.6 255.614 111.896C256.174 111.208 256.75 110.16 257.342 108.752C256.174 109.344 255.27 109.896 254.63 110.408C253.99 110.92 253.67 111.488 253.67 112.112C253.67 112.368 253.718 112.568 253.814 112.712C253.926 112.872 254.07 112.952 254.246 112.952ZM266.886 107.624C266.342 107.624 265.91 107.48 265.59 107.192C265.286 106.904 265.134 106.528 265.134 106.064C265.134 105.52 265.366 104.736 265.83 103.712C266.038 103.184 266.19 102.768 266.286 102.464C266.398 102.144 266.454 101.848 266.454 101.576C266.454 101.176 266.358 100.864 266.166 100.64C265.99 100.4 265.79 100.208 265.566 100.064C265.342 99.904 265.19 99.8 265.11 99.752C264.758 100.648 264.382 101.528 263.982 102.392C263.582 103.24 263.246 103.896 262.974 104.36L262.758 103.952C263.526 102.464 264.174 100.944 264.702 99.392C264.542 99.232 264.462 99.04 264.462 98.816C264.462 98.528 264.518 98.256 264.63 98C264.758 97.744 264.902 97.544 265.062 97.4C265.238 97.256 265.374 97.184 265.47 97.184C265.694 97.184 265.806 97.376 265.806 97.76C265.806 97.824 265.766 97.968 265.686 98.192C265.606 98.416 265.558 98.568 265.542 98.648C265.542 98.808 265.606 98.96 265.734 99.104C265.878 99.232 266.102 99.4 266.406 99.608C266.902 99.96 267.286 100.312 267.558 100.664C267.846 101 267.99 101.44 267.99 101.984C267.99 102.336 267.934 102.688 267.822 103.04C267.71 103.376 267.542 103.824 267.318 104.384C266.966 105.152 266.79 105.704 266.79 106.04C266.79 106.52 267.03 106.76 267.51 106.76C267.99 106.76 268.502 106.568 269.046 106.184C269.606 105.8 270.118 105.328 270.582 104.768C271.046 104.192 271.382 103.664 271.59 103.184L271.902 103.424C271.406 104.528 270.686 105.504 269.742 106.352C268.798 107.2 267.846 107.624 266.886 107.624ZM273.67 108.056C272.726 108.056 271.998 107.792 271.486 107.264C270.99 106.752 270.742 106.088 270.742 105.272C270.742 104.328 271.054 103.312 271.678 102.224C272.302 101.136 273.086 100.224 274.03 99.488C274.99 98.736 275.926 98.36 276.838 98.36C277.83 98.36 278.326 98.848 278.326 99.824C278.326 100.608 278.03 101.344 277.438 102.032C276.846 102.704 276.086 103.256 275.158 103.688C274.23 104.12 273.302 104.384 272.374 104.48C272.31 104.752 272.278 105.04 272.278 105.344C272.278 105.92 272.422 106.4 272.71 106.784C272.998 107.168 273.486 107.36 274.174 107.36C275.15 107.36 276.134 106.952 277.126 106.136C278.118 105.32 278.926 104.312 279.55 103.112L279.838 103.328C279.198 104.752 278.31 105.896 277.174 106.76C276.038 107.624 274.87 108.056 273.67 108.056ZM272.494 104.024C273.166 103.784 273.87 103.448 274.606 103.016C275.342 102.584 275.966 102.08 276.478 101.504C277.006 100.912 277.27 100.296 277.27 99.656C277.27 99.464 277.23 99.328 277.15 99.248C277.086 99.152 276.958 99.104 276.766 99.104C276.27 99.104 275.726 99.352 275.134 99.848C274.558 100.344 274.022 100.976 273.526 101.744C273.046 102.512 272.702 103.272 272.494 104.024ZM280.222 108.128C279.694 108.128 279.27 107.952 278.95 107.6C278.614 107.264 278.446 106.776 278.446 106.136C278.446 105.192 278.782 104.136 279.454 102.968C280.142 101.8 281.006 100.808 282.046 99.992C283.086 99.176 284.102 98.768 285.094 98.768C285.718 98.768 286.238 98.936 286.654 99.272C287.07 99.608 287.278 100.04 287.278 100.568C287.278 100.936 287.174 101.2 286.966 101.36C286.758 101.52 286.47 101.6 286.102 101.6C286.182 101.312 286.222 101.032 286.222 100.76C286.222 100.36 286.126 100.04 285.934 99.8C285.742 99.544 285.446 99.416 285.046 99.416C284.342 99.416 283.598 99.808 282.814 100.592C282.046 101.376 281.398 102.312 280.87 103.4C280.358 104.488 280.102 105.424 280.102 106.208C280.102 106.832 280.318 107.144 280.75 107.144C281.39 107.144 282.142 106.64 283.006 105.632C283.87 104.608 284.798 103.368 285.79 101.912C285.998 101.944 286.206 102.016 286.414 102.128C286.638 102.224 286.75 102.352 286.75 102.512C286.75 102.64 286.67 102.848 286.51 103.136C286.366 103.408 286.278 103.568 286.246 103.616C285.974 104.08 285.758 104.496 285.598 104.864C285.438 105.216 285.358 105.544 285.358 105.848C285.358 106.12 285.422 106.368 285.55 106.592C285.694 106.8 285.902 106.904 286.174 106.904C286.638 106.904 287.222 106.576 287.926 105.92C288.63 105.248 289.326 104.312 290.014 103.112L290.254 103.352C289.918 104.2 289.486 104.96 288.958 105.632C288.43 106.288 287.862 106.8 287.254 107.168C286.646 107.536 286.062 107.72 285.502 107.72C284.942 107.72 284.51 107.552 284.206 107.216C283.918 106.896 283.774 106.504 283.774 106.04C283.774 105.832 283.798 105.6 283.846 105.344C283.126 106.304 282.478 107.008 281.902 107.456C281.342 107.904 280.782 108.128 280.222 108.128ZM291.563 108.104C290.139 108.104 289.427 107.312 289.427 105.728C289.427 105.04 289.547 104.192 289.787 103.184C290.043 102.16 290.387 101.08 290.819 99.944C290.435 99.88 290.147 99.816 289.955 99.752V99.32C290.531 99.384 290.883 99.416 291.011 99.416C291.715 97.592 292.467 96.016 293.267 94.688C294.083 93.344 294.723 92.672 295.187 92.672C295.315 92.672 295.427 92.72 295.523 92.816C295.635 92.912 295.691 93.04 295.691 93.2C295.691 93.408 295.587 93.712 295.379 94.112C295.187 94.512 294.851 95.128 294.371 95.96C294.291 96.12 294.043 96.568 293.627 97.304C293.211 98.024 292.835 98.752 292.499 99.488H293.387C294.715 99.488 295.859 99.44 296.819 99.344V99.776C295.075 99.968 293.667 100.064 292.595 100.064H292.235C291.355 102.08 290.915 103.824 290.915 105.296C290.915 105.984 291.019 106.48 291.227 106.784C291.435 107.072 291.779 107.216 292.259 107.216C293.075 107.216 293.883 106.856 294.683 106.136C295.483 105.4 296.195 104.392 296.819 103.112L297.131 103.352C296.539 104.744 295.739 105.888 294.731 106.784C293.723 107.664 292.667 108.104 291.563 108.104ZM298.333 103.544C298.493 103.096 298.965 102.792 299.749 102.632C300.533 102.456 301.573 102.368 302.869 102.368C304.165 102.368 305.509 102.44 306.901 102.584C306.261 103.048 305.437 103.28 304.429 103.28H302.149C301.301 103.28 300.629 103.296 300.133 103.328C299.653 103.36 299.053 103.432 298.333 103.544ZM308.782 113.72C308.446 113.72 308.142 113.56 307.87 113.24C307.598 112.936 307.462 112.392 307.462 111.608C307.462 109.928 308.062 107.288 309.262 103.688C310.462 100.072 311.862 96.84 313.462 93.992C315.078 91.144 316.502 89.72 317.734 89.72C318.038 89.72 318.246 89.816 318.358 90.008C318.486 90.184 318.55 90.432 318.55 90.752C318.55 91.632 318.238 92.632 317.614 93.752C316.99 94.872 316.182 95.968 315.19 97.04C314.198 98.112 313.182 99.016 312.142 99.752C311.966 100.152 311.83 100.504 311.734 100.808C311.99 100.904 312.174 101.104 312.286 101.408C312.702 102.768 313.422 103.448 314.446 103.448C314.926 103.448 315.43 103.304 315.958 103.016C316.486 102.728 316.982 102.352 317.446 101.888C317.814 101.008 318.214 100.288 318.646 99.728C319.094 99.152 319.526 98.864 319.942 98.864C320.086 98.864 320.206 98.912 320.302 99.008C320.414 99.104 320.47 99.232 320.47 99.392C320.47 99.616 320.214 100.152 319.702 101C319.174 101.88 318.75 102.672 318.43 103.376C318.126 104.064 317.974 104.72 317.974 105.344C317.974 105.904 318.062 106.288 318.238 106.496C318.43 106.688 318.734 106.784 319.15 106.784C320.398 106.784 321.63 105.56 322.846 103.112L323.062 103.352C322.614 104.696 321.95 105.744 321.07 106.496C320.206 107.248 319.294 107.624 318.334 107.624C317.742 107.624 317.286 107.432 316.966 107.048C316.646 106.68 316.486 106.2 316.486 105.608C316.486 104.904 316.678 103.992 317.062 102.872C316.598 103.256 316.102 103.552 315.574 103.76C315.062 103.968 314.55 104.072 314.038 104.072C313.494 104.072 312.942 103.944 312.382 103.688C312.446 104.136 312.478 104.648 312.478 105.224C312.478 106.552 312.294 107.872 311.926 109.184C311.574 110.512 311.11 111.6 310.534 112.448C309.958 113.296 309.374 113.72 308.782 113.72ZM312.526 98.768C313.502 97.872 314.374 96.936 315.142 95.96C315.926 94.984 316.534 94.112 316.966 93.344C317.398 92.56 317.614 92 317.614 91.664C317.614 91.44 317.502 91.328 317.278 91.328C316.686 91.328 315.966 92.024 315.118 93.416C314.27 94.792 313.406 96.576 312.526 98.768ZM321.214 96.632C320.926 96.632 320.686 96.568 320.494 96.44C320.318 96.296 320.23 96.096 320.23 95.84C320.23 95.52 320.422 95.232 320.806 94.976C321.19 94.72 321.582 94.592 321.982 94.592C322.51 94.592 322.774 94.84 322.774 95.336C322.774 95.64 322.606 95.936 322.27 96.224C321.95 96.496 321.598 96.632 321.214 96.632ZM309.406 112.568C309.71 112.568 310.054 112.16 310.438 111.344C310.822 110.544 311.15 109.56 311.422 108.392C311.71 107.224 311.854 106.144 311.854 105.152C311.854 104.544 311.814 104.016 311.734 103.568C311.654 103.104 311.454 102.744 311.134 102.488C310.478 104.376 309.95 106.128 309.55 107.744C309.15 109.376 308.95 110.6 308.95 111.416C308.95 111.784 308.99 112.064 309.07 112.256C309.15 112.464 309.262 112.568 309.406 112.568ZM324.446 108.104C323.022 108.104 322.31 107.312 322.31 105.728C322.31 105.04 322.43 104.192 322.67 103.184C322.926 102.16 323.27 101.08 323.702 99.944C323.318 99.88 323.03 99.816 322.838 99.752V99.32C323.414 99.384 323.766 99.416 323.894 99.416C324.598 97.592 325.35 96.016 326.15 94.688C326.966 93.344 327.606 92.672 328.07 92.672C328.198 92.672 328.31 92.72 328.406 92.816C328.518 92.912 328.574 93.04 328.574 93.2C328.574 93.408 328.47 93.712 328.262 94.112C328.07 94.512 327.734 95.128 327.254 95.96C327.174 96.12 326.926 96.568 326.51 97.304C326.094 98.024 325.718 98.752 325.382 99.488H326.27C327.598 99.488 328.742 99.44 329.702 99.344V99.776C327.958 99.968 326.55 100.064 325.478 100.064H325.118C324.238 102.08 323.798 103.824 323.798 105.296C323.798 105.984 323.902 106.48 324.11 106.784C324.318 107.072 324.662 107.216 325.142 107.216C325.958 107.216 326.766 106.856 327.566 106.136C328.366 105.4 329.078 104.392 329.702 103.112L330.014 103.352C329.422 104.744 328.622 105.888 327.614 106.784C326.606 107.664 325.55 108.104 324.446 108.104ZM331.29 108.104C329.866 108.104 329.154 107.312 329.154 105.728C329.154 105.04 329.274 104.192 329.514 103.184C329.77 102.16 330.114 101.08 330.546 99.944C330.162 99.88 329.874 99.816 329.682 99.752V99.32C330.258 99.384 330.61 99.416 330.738 99.416C331.442 97.592 332.194 96.016 332.994 94.688C333.81 93.344 334.45 92.672 334.914 92.672C335.042 92.672 335.154 92.72 335.25 92.816C335.362 92.912 335.418 93.04 335.418 93.2C335.418 93.408 335.314 93.712 335.106 94.112C334.914 94.512 334.578 95.128 334.098 95.96C334.018 96.12 333.77 96.568 333.354 97.304C332.938 98.024 332.562 98.752 332.226 99.488H333.114C334.442 99.488 335.586 99.44 336.546 99.344V99.776C334.802 99.968 333.394 100.064 332.322 100.064H331.962C331.082 102.08 330.642 103.824 330.642 105.296C330.642 105.984 330.746 106.48 330.954 106.784C331.162 107.072 331.506 107.216 331.986 107.216C332.802 107.216 333.61 106.856 334.41 106.136C335.21 105.4 335.922 104.392 336.546 103.112L336.858 103.352C336.266 104.744 335.466 105.888 334.458 106.784C333.45 107.664 332.394 108.104 331.29 108.104ZM340.702 96.632C340.414 96.632 340.174 96.568 339.982 96.44C339.806 96.296 339.718 96.096 339.718 95.84C339.718 95.52 339.91 95.232 340.294 94.976C340.678 94.72 341.07 94.592 341.47 94.592C341.998 94.592 342.262 94.84 342.262 95.336C342.262 95.64 342.094 95.936 341.758 96.224C341.438 96.496 341.086 96.632 340.702 96.632ZM337.822 107.624C337.23 107.624 336.774 107.432 336.454 107.048C336.134 106.68 335.974 106.2 335.974 105.608C335.974 104.984 336.15 104.12 336.502 103.016C336.87 101.912 337.318 100.944 337.846 100.112C338.39 99.28 338.918 98.864 339.43 98.864C339.574 98.864 339.694 98.912 339.79 99.008C339.902 99.104 339.958 99.232 339.958 99.392C339.958 99.616 339.702 100.152 339.19 101C338.662 101.88 338.238 102.672 337.918 103.376C337.614 104.064 337.462 104.72 337.462 105.344C337.462 105.904 337.55 106.288 337.726 106.496C337.918 106.688 338.222 106.784 338.638 106.784C339.886 106.784 341.118 105.56 342.334 103.112L342.55 103.352C342.102 104.696 341.438 105.744 340.558 106.496C339.694 107.248 338.782 107.624 337.822 107.624ZM349.635 107.48C349.091 107.48 348.675 107.336 348.387 107.048C348.099 106.776 347.955 106.408 347.955 105.944C347.955 105.736 347.987 105.496 348.051 105.224C348.131 104.936 348.211 104.656 348.291 104.384C348.387 104.096 348.467 103.792 348.531 103.472C348.611 103.152 348.651 102.864 348.651 102.608C348.651 101.824 348.331 101.432 347.691 101.432C347.083 101.432 346.443 101.752 345.771 102.392C345.115 103.032 344.523 103.744 343.995 104.528C343.483 105.312 342.899 106.256 342.243 107.36C341.971 107.36 341.723 107.312 341.499 107.216C341.275 107.136 341.099 107.008 340.971 106.832C340.971 106.752 341.075 106.464 341.283 105.968C341.683 104.944 342.011 104.016 342.267 103.184C342.523 102.336 342.659 101.584 342.675 100.928C342.787 100.8 342.947 100.688 343.155 100.592C343.363 100.48 343.571 100.424 343.779 100.424C344.211 100.424 344.427 100.632 344.427 101.048C344.427 101.288 344.355 101.712 344.211 102.32C344.067 102.912 343.883 103.544 343.659 104.216C344.427 103.032 345.243 102.032 346.107 101.216C346.971 100.4 347.819 99.992 348.651 99.992C349.243 99.992 349.683 100.208 349.971 100.64C350.275 101.056 350.427 101.56 350.427 102.152C350.427 102.504 350.379 102.84 350.283 103.16C350.203 103.48 350.075 103.848 349.899 104.264C349.755 104.616 349.643 104.92 349.563 105.176C349.483 105.432 349.443 105.688 349.443 105.944C349.443 106.552 349.683 106.856 350.163 106.856C350.707 106.856 351.267 106.496 351.843 105.776C352.435 105.056 352.995 104.168 353.523 103.112L353.787 103.424C352.635 106.128 351.251 107.48 349.635 107.48ZM353.975 113.72C353.591 113.72 353.263 113.6 352.99 113.36C352.718 113.136 352.582 112.792 352.582 112.328C352.582 111.736 352.814 111.184 353.279 110.672C353.743 110.176 354.271 109.744 354.863 109.376C355.471 109.024 356.271 108.6 357.263 108.104C357.711 106.952 358.119 105.632 358.487 104.144C357.063 106.192 355.759 107.216 354.575 107.216C354.015 107.216 353.575 107.008 353.255 106.592C352.935 106.16 352.774 105.592 352.774 104.888C352.774 103.832 353.111 102.824 353.783 101.864C354.471 100.904 355.311 100.136 356.303 99.56C357.311 98.968 358.255 98.672 359.135 98.672C359.567 98.672 359.887 98.744 360.095 98.888C360.319 99.032 360.431 99.216 360.431 99.44C360.431 99.568 360.391 99.68 360.311 99.776C360.247 99.856 360.191 99.904 360.143 99.92C359.983 99.68 359.663 99.56 359.183 99.56C358.383 99.56 357.607 99.864 356.855 100.472C356.119 101.08 355.519 101.816 355.055 102.68C354.591 103.544 354.359 104.32 354.359 105.008C354.359 105.392 354.431 105.688 354.575 105.896C354.735 106.088 354.943 106.184 355.199 106.184C355.631 106.184 356.167 105.888 356.807 105.296C357.463 104.704 358.111 103.944 358.751 103.016L359.039 101.744C359.103 101.44 359.231 101.16 359.423 100.904C359.631 100.648 359.911 100.52 360.263 100.52C360.407 100.52 360.575 100.544 360.767 100.592C360.767 101.024 360.591 101.896 360.239 103.208C359.887 104.504 359.447 105.824 358.919 107.168C359.751 106.768 360.519 106.216 361.223 105.512C361.943 104.792 362.479 103.992 362.831 103.112L363.143 103.352C362.807 104.328 362.199 105.216 361.319 106.016C360.455 106.816 359.567 107.432 358.655 107.864C357.903 109.688 357.143 111.12 356.375 112.16C355.607 113.2 354.807 113.72 353.975 113.72ZM353.903 112.952C354.271 112.952 354.727 112.6 355.271 111.896C355.831 111.208 356.407 110.16 356.999 108.752C355.831 109.344 354.927 109.896 354.287 110.408C353.647 110.92 353.327 111.488 353.327 112.112C353.327 112.368 353.375 112.568 353.471 112.712C353.583 112.872 353.727 112.952 353.903 112.952ZM380.721 107.744C380.193 107.744 379.793 107.576 379.521 107.24C379.249 106.92 379.113 106.504 379.113 105.992C379.113 105.56 379.241 104.928 379.497 104.096C379.577 103.824 379.649 103.552 379.713 103.28C379.793 103.008 379.833 102.776 379.833 102.584C379.833 102.296 379.761 102.08 379.617 101.936C379.489 101.792 379.329 101.72 379.137 101.72C378.769 101.72 378.369 101.984 377.937 102.512C377.521 103.024 376.873 103.952 375.993 105.296C375.769 105.648 375.457 106.24 375.057 107.072L374.841 107.528C374.585 107.528 374.313 107.48 374.025 107.384C373.753 107.304 373.617 107.192 373.617 107.048C373.617 106.936 373.753 106.512 374.025 105.776C374.361 104.784 374.625 103.952 374.817 103.28C375.025 102.592 375.129 102.008 375.129 101.528C375.129 100.92 374.929 100.616 374.529 100.616C374.081 100.616 373.497 100.976 372.777 101.696C372.073 102.416 371.377 103.328 370.689 104.432C370.001 105.52 369.465 106.592 369.081 107.648C368.841 107.648 368.569 107.592 368.265 107.48C367.945 107.368 367.785 107.256 367.785 107.144C367.785 107.096 367.897 106.72 368.121 106.016C368.489 104.944 368.793 103.96 369.033 103.064C369.289 102.168 369.425 101.392 369.441 100.736C369.553 100.608 369.713 100.496 369.921 100.4C370.129 100.288 370.337 100.232 370.545 100.232C370.977 100.232 371.193 100.44 371.193 100.856C371.193 101.288 370.985 102.2 370.569 103.592C371.353 102.344 372.193 101.272 373.089 100.376C374.001 99.48 374.849 99.032 375.633 99.032C376.097 99.032 376.425 99.2 376.617 99.536C376.825 99.872 376.929 100.312 376.929 100.856C376.929 101.4 376.849 101.992 376.689 102.632C376.529 103.272 376.361 103.808 376.185 104.24C376.793 103.136 377.425 102.248 378.081 101.576C378.737 100.888 379.433 100.544 380.169 100.544C380.649 100.544 380.993 100.688 381.201 100.976C381.425 101.264 381.537 101.632 381.537 102.08C381.537 102.384 381.497 102.712 381.417 103.064C381.337 103.4 381.217 103.816 381.057 104.312C380.785 105.16 380.649 105.752 380.649 106.088C380.649 106.632 380.889 106.904 381.369 106.904C381.961 106.904 382.521 106.544 383.049 105.824C383.577 105.088 384.089 104.184 384.585 103.112L384.873 103.448C384.425 104.632 383.841 105.648 383.121 106.496C382.401 107.328 381.601 107.744 380.721 107.744ZM385.293 108.128C384.765 108.128 384.341 107.952 384.021 107.6C383.685 107.264 383.517 106.776 383.517 106.136C383.517 105.192 383.853 104.136 384.525 102.968C385.213 101.8 386.077 100.808 387.117 99.992C388.157 99.176 389.173 98.768 390.165 98.768C390.789 98.768 391.309 98.936 391.725 99.272C392.141 99.608 392.349 100.04 392.349 100.568C392.349 100.936 392.245 101.2 392.037 101.36C391.829 101.52 391.541 101.6 391.173 101.6C391.253 101.312 391.293 101.032 391.293 100.76C391.293 100.36 391.197 100.04 391.005 99.8C390.813 99.544 390.517 99.416 390.117 99.416C389.413 99.416 388.669 99.808 387.885 100.592C387.117 101.376 386.469 102.312 385.941 103.4C385.429 104.488 385.173 105.424 385.173 106.208C385.173 106.832 385.389 107.144 385.821 107.144C386.461 107.144 387.213 106.64 388.077 105.632C388.941 104.608 389.869 103.368 390.861 101.912C391.069 101.944 391.277 102.016 391.485 102.128C391.709 102.224 391.821 102.352 391.821 102.512C391.821 102.64 391.741 102.848 391.581 103.136C391.437 103.408 391.349 103.568 391.317 103.616C391.045 104.08 390.829 104.496 390.669 104.864C390.509 105.216 390.429 105.544 390.429 105.848C390.429 106.12 390.493 106.368 390.621 106.592C390.765 106.8 390.973 106.904 391.245 106.904C391.709 106.904 392.293 106.576 392.997 105.92C393.701 105.248 394.397 104.312 395.085 103.112L395.325 103.352C394.989 104.2 394.557 104.96 394.029 105.632C393.501 106.288 392.933 106.8 392.325 107.168C391.717 107.536 391.133 107.72 390.573 107.72C390.013 107.72 389.581 107.552 389.277 107.216C388.989 106.896 388.845 106.504 388.845 106.04C388.845 105.832 388.869 105.6 388.917 105.344C388.197 106.304 387.549 107.008 386.973 107.456C386.413 107.904 385.853 108.128 385.293 108.128ZM397.114 108.224C396.074 108.224 395.314 107.912 394.834 107.288C394.354 106.664 394.114 105.928 394.114 105.08C394.114 104.44 394.226 103.992 394.45 103.736C394.674 103.464 394.914 103.272 395.17 103.16C395.442 103.048 395.602 102.968 395.65 102.92C396.674 101.8 397.466 100.64 398.026 99.44V99.152C398.026 98.608 398.114 98.2 398.29 97.928C398.482 97.656 398.706 97.52 398.962 97.52C399.09 97.52 399.186 97.552 399.25 97.616C399.314 97.664 399.346 97.736 399.346 97.832C399.346 97.896 399.322 98.032 399.274 98.24C399.226 98.432 399.202 98.648 399.202 98.888C399.202 99.208 399.242 99.552 399.322 99.92C399.418 100.272 399.562 100.736 399.754 101.312C399.978 102 400.146 102.6 400.258 103.112C400.386 103.624 400.45 104.144 400.45 104.672C400.45 105.088 400.402 105.48 400.306 105.848C400.882 105.752 401.418 105.496 401.914 105.08C402.41 104.648 402.882 104 403.33 103.136L403.546 103.376C403.258 104.208 402.818 104.864 402.226 105.344C401.634 105.824 400.954 106.12 400.186 106.232C399.946 106.888 399.554 107.384 399.01 107.72C398.466 108.056 397.834 108.224 397.114 108.224ZM398.794 105.824C398.858 105.408 398.89 105.032 398.89 104.696C398.89 104.216 398.85 103.736 398.77 103.256C398.69 102.776 398.57 102.224 398.41 101.6C398.266 100.96 398.178 100.544 398.146 100.352C397.33 101.696 396.554 102.736 395.818 103.472C396.074 104.032 396.458 104.528 396.97 104.96C397.498 105.392 398.106 105.68 398.794 105.824ZM397.162 107.384C397.898 107.384 398.402 106.992 398.674 106.208C398.034 106.08 397.45 105.832 396.922 105.464C396.394 105.08 395.994 104.664 395.722 104.216C395.37 104.232 395.194 104.512 395.194 105.056C395.194 105.664 395.37 106.208 395.722 106.688C396.09 107.152 396.57 107.384 397.162 107.384ZM409.995 107.912C409.435 107.912 408.971 107.672 408.603 107.192C408.235 106.712 407.963 106.136 407.787 105.464C407.627 104.792 407.547 104.168 407.547 103.592C407.851 103.592 408.243 103.504 408.723 103.328C409.219 103.152 409.659 102.896 410.043 102.56C410.427 102.208 410.619 101.784 410.619 101.288C410.619 100.968 410.499 100.712 410.259 100.52C410.019 100.312 409.739 100.208 409.419 100.208C408.395 100.208 407.515 100.864 406.779 102.176C406.059 103.488 405.427 104.968 404.883 106.616L404.619 107.312C404.539 107.456 404.419 107.56 404.259 107.624C404.115 107.704 403.963 107.744 403.803 107.744C403.435 107.744 403.203 107.552 403.107 107.168C403.011 106.784 402.963 106.224 402.963 105.488C402.963 103.92 403.435 101.896 404.379 99.416C405.339 96.936 406.411 94.728 407.595 92.792C408.795 90.84 409.675 89.864 410.235 89.864C410.443 89.864 410.619 90.016 410.763 90.32C410.907 90.624 410.979 90.992 410.979 91.424C410.979 92.16 410.763 93 410.331 93.944C409.915 94.888 409.331 95.8 408.579 96.68C407.827 97.56 406.995 98.272 406.083 98.816C405.571 100.064 405.179 101.304 404.907 102.536C404.635 103.768 404.499 104.816 404.499 105.68C405.203 103.904 406.011 102.344 406.923 101C407.835 99.64 408.819 98.96 409.875 98.96C410.467 98.96 410.971 99.168 411.387 99.584C411.803 100 412.011 100.504 412.011 101.096C412.011 101.72 411.803 102.248 411.387 102.68C410.987 103.096 410.515 103.408 409.971 103.616C409.443 103.808 408.987 103.904 408.603 103.904C408.683 104.496 408.875 105.16 409.179 105.896C409.499 106.632 409.931 107 410.475 107C411.675 107 412.859 105.696 414.027 103.088L414.267 103.328C414.043 104.112 413.699 104.856 413.235 105.56C412.771 106.264 412.251 106.832 411.675 107.264C411.099 107.696 410.539 107.912 409.995 107.912ZM406.491 97.856C407.195 97.296 407.827 96.64 408.387 95.888C408.947 95.136 409.379 94.408 409.683 93.704C410.003 93 410.163 92.44 410.163 92.024C410.163 91.88 410.139 91.808 410.091 91.808C409.851 91.808 409.363 92.424 408.627 93.656C407.891 94.872 407.179 96.272 406.491 97.856Z" fill="black"/>
</g>
<defs>
<clipPath id="clip0">
<rect width="414" height="114" fill="white"/>
</clipPath>
</defs>
</svg>
