<svg width="21" height="17" viewBox="0 0 21 17" fill="none" xmlns="http://www.w3.org/2000/svg">
<path d="M6.68282 16.9732C14.23 16.9732 18.358 10.7204 18.358 5.29802C18.358 5.12042 18.358 4.94362 18.346 4.76762C19.1491 4.18675 19.8423 3.46752 20.3932 2.64362C19.6443 2.97546 18.8499 3.19308 18.0364 3.28922C18.893 2.7764 19.5341 1.96983 19.8404 1.01962C19.0349 1.49758 18.1537 1.83443 17.2348 2.01562C16.6161 1.35776 15.7979 0.92215 14.9067 0.776186C14.0155 0.630222 13.1011 0.782045 12.3049 1.20816C11.5086 1.63428 10.8751 2.31093 10.5022 3.13341C10.1293 3.95589 10.0378 4.87834 10.242 5.75802C8.61062 5.67623 7.01466 5.25228 5.55773 4.51369C4.10081 3.7751 2.81549 2.73837 1.78522 1.47082C1.26049 2.37415 1.09978 3.44351 1.3358 4.46117C1.57182 5.47883 2.18684 6.36828 3.05562 6.94842C2.40261 6.92906 1.76384 6.75291 1.19322 6.43482C1.19322 6.45162 1.19322 6.46922 1.19322 6.48682C1.19348 7.43419 1.52143 8.35231 2.12144 9.08545C2.72146 9.8186 3.5566 10.3216 4.48522 10.5092C3.88111 10.674 3.24728 10.6981 2.63242 10.5796C2.89463 11.395 3.40511 12.1079 4.09248 12.6189C4.77984 13.1298 5.60971 13.4131 6.46602 13.4292C5.01301 14.5712 3.21807 15.1911 1.37002 15.1892C1.04354 15.1886 0.717382 15.1688 0.393219 15.13C2.26973 16.3342 4.45315 16.973 6.68282 16.97" fill="black"/>
</svg>
